<?xml version="1.0" encoding="UTF-8" ?>
<!DOCTYPE svg PUBLIC "-//W3C//DTD SVG 1.1//EN" "http://www.w3.org/Graphics/SVG/1.1/DTD/svg11.dtd">
<svg width="960pt" height="540pt" viewBox="0 0 960 540" version="1.1" xmlns="http://www.w3.org/2000/svg">
<g id="#ffffffff">
<path fill="#ffffff" opacity="1.00" d=" M 0.00 0.00 L 960.00 0.00 L 960.00 540.00 L 0.00 540.00 L 0.00 0.00 M 366.00 199.50 C 366.00 242.83 366.00 286.17 366.00 329.50 C 434.83 329.50 503.67 329.50 572.50 329.50 C 572.50 286.17 572.50 242.83 572.50 199.50 C 503.67 199.50 434.83 199.50 366.00 199.50 Z" />
<path fill="#ffffff" opacity="1.00" d=" M 512.67 217.42 C 524.91 217.08 537.17 217.13 549.41 217.38 C 549.41 221.11 549.41 224.85 549.42 228.59 C 543.02 229.21 536.60 228.73 530.19 228.72 C 530.23 230.25 530.27 231.79 530.31 233.33 C 534.48 233.34 538.68 233.48 542.80 232.64 C 543.27 234.90 543.29 237.22 543.30 239.52 C 538.26 239.84 533.21 239.77 528.17 239.77 C 527.71 245.62 528.36 251.48 528.11 257.33 C 524.33 257.42 520.55 257.41 516.77 257.35 C 516.70 247.01 516.71 236.66 516.76 226.32 C 515.37 226.10 514.00 225.88 512.62 225.66 C 512.67 222.91 512.67 220.17 512.67 217.42 Z" />
<path fill="#ffffff" opacity="1.00" d=" M 459.19 219.12 C 466.25 219.01 473.31 219.25 480.37 219.14 C 480.44 229.74 480.26 240.33 480.46 250.93 C 482.49 250.59 484.50 250.20 486.53 249.83 C 486.46 251.81 486.34 253.80 486.22 255.78 C 478.34 255.91 470.47 255.94 462.59 255.78 C 462.40 246.70 462.59 237.63 462.48 228.56 C 461.53 228.85 460.59 229.15 459.65 229.45 C 459.38 226.01 459.29 222.56 459.19 219.12 Z" />
<path fill="#ffffff" opacity="1.00" d=" M 399.15 220.26 C 405.89 220.15 412.63 220.38 419.36 220.23 C 419.75 229.17 419.06 238.11 418.71 247.04 C 418.53 250.40 417.85 253.87 416.01 256.73 C 411.96 262.25 404.11 263.98 397.78 262.01 C 394.40 261.07 392.74 257.72 390.90 255.05 C 393.75 253.89 396.59 252.72 399.37 251.41 C 400.73 252.64 401.63 255.36 403.89 254.74 C 405.78 254.01 407.25 252.23 407.25 250.14 C 407.76 244.20 407.54 238.21 407.55 232.25 C 404.81 231.89 402.05 231.90 399.29 231.94 C 399.21 228.05 399.10 224.16 399.15 220.26 Z" />
<path fill="#ffffff" opacity="1.00" d=" M 422.73 220.72 C 427.09 220.82 431.45 220.75 435.82 220.78 C 435.90 228.54 435.76 236.30 435.84 244.06 C 435.67 245.71 437.19 248.26 438.51 245.79 C 439.34 237.81 438.93 229.72 439.17 221.70 C 443.94 221.51 448.71 221.58 453.49 221.72 C 454.73 222.78 454.13 224.56 454.34 225.99 C 454.34 233.64 454.41 241.30 454.31 248.96 C 454.38 251.04 453.63 253.73 451.26 254.14 C 444.48 254.76 437.65 254.80 430.86 254.31 C 428.92 254.31 427.29 253.17 425.67 252.26 C 425.69 244.39 425.70 236.51 425.73 228.63 C 424.68 228.45 423.63 228.28 422.59 228.13 C 422.66 225.66 422.70 223.19 422.73 220.72 Z" />
<path fill="#ffffff" opacity="1.00" d=" M 493.72 221.20 C 498.65 221.10 503.56 220.62 508.49 220.57 C 508.51 221.57 508.53 223.59 508.55 224.60 C 503.76 225.72 498.88 226.29 493.99 226.67 C 493.91 224.84 493.84 223.02 493.72 221.20 Z" />
<path fill="#ffffff" opacity="1.00" d=" M 494.10 230.08 C 498.86 229.06 503.68 228.32 508.53 227.83 C 508.49 236.37 508.57 244.92 508.48 253.46 C 503.80 253.31 499.13 253.35 494.45 253.35 C 494.30 245.59 494.13 237.84 494.10 230.08 Z" />
<path fill="#ffffff" opacity="1.00" d=" M 388.59 249.09 C 391.65 248.14 394.68 247.13 397.74 246.18 C 397.98 246.91 398.44 248.38 398.67 249.12 C 395.75 250.35 392.82 251.57 389.88 252.75 C 389.44 251.53 389.01 250.31 388.59 249.09 Z" />
<path fill="#ffffff" opacity="1.00" d=" M 394.25 269.46 C 402.35 267.53 410.72 268.53 418.96 268.31 C 424.18 268.07 429.57 270.11 432.48 274.62 C 435.23 279.70 431.55 284.59 428.45 288.45 C 434.13 290.76 440.04 293.47 443.52 298.80 C 443.54 300.87 443.53 302.97 443.04 305.01 C 439.18 311.70 431.24 314.39 423.89 314.53 C 416.18 314.64 408.47 314.65 400.76 314.51 C 400.48 301.90 401.29 289.26 400.43 276.67 C 398.90 276.74 397.39 276.82 395.88 276.89 C 395.33 274.42 394.76 271.94 394.25 269.46 M 414.52 275.40 C 414.42 278.16 414.54 280.93 414.86 283.68 C 417.47 284.13 419.89 283.49 421.60 281.42 C 421.59 279.88 422.02 278.24 421.39 276.78 C 419.43 275.26 416.82 275.62 414.52 275.40 M 417.04 295.74 C 417.14 299.16 417.48 302.57 417.84 305.98 C 421.70 306.40 425.08 304.52 427.91 302.11 C 427.60 296.52 421.39 295.83 417.04 295.74 Z" />
<path fill="#ffffff" opacity="1.00" d=" M 513.20 276.94 C 513.48 274.14 516.28 272.29 518.89 271.98 C 523.35 271.38 527.90 271.74 532.35 272.29 C 532.36 274.36 532.38 276.43 532.43 278.50 C 529.76 278.65 525.71 278.46 525.13 281.87 C 524.58 288.32 524.85 294.84 524.74 301.32 C 528.48 302.38 532.38 302.51 536.25 302.42 C 536.32 300.73 536.40 299.05 536.49 297.37 C 534.35 296.66 532.08 296.70 529.87 296.64 C 529.88 294.26 529.88 291.88 529.89 289.50 C 536.82 289.26 543.77 289.49 550.68 288.69 C 550.69 291.88 550.70 295.10 551.39 298.25 C 550.68 298.56 549.27 299.20 548.56 299.51 C 548.63 303.06 548.68 306.61 548.38 310.14 C 542.62 311.97 536.46 311.25 530.54 311.04 C 524.07 309.91 516.28 310.74 511.41 305.48 C 511.40 295.96 511.32 286.31 513.20 276.94 Z" />
<path fill="#ffffff" opacity="1.00" d=" M 534.85 272.38 C 538.62 272.58 542.41 272.52 546.19 272.85 C 546.79 276.47 546.43 280.16 546.48 283.82 C 543.83 284.04 541.19 284.20 538.54 284.27 C 538.49 282.69 538.43 281.11 538.39 279.55 C 537.22 279.05 536.03 278.60 534.84 278.17 C 534.84 276.23 534.84 274.30 534.85 272.38 Z" />
<path fill="#ffffff" opacity="1.00" d=" M 444.54 273.52 C 451.79 273.79 459.05 273.49 466.30 273.85 C 466.35 284.40 466.20 294.95 466.37 305.50 C 468.57 305.25 470.75 304.91 472.95 304.56 C 472.84 306.50 472.73 308.44 472.59 310.38 C 464.67 310.41 456.74 310.48 448.82 310.34 C 448.86 301.43 448.91 292.51 448.50 283.61 C 447.77 283.59 446.31 283.56 445.57 283.54 C 445.12 280.21 444.71 276.87 444.54 273.52 Z" />
<path fill="#ffffff" opacity="1.00" d=" M 487.17 276.16 C 492.70 274.74 499.12 274.56 503.83 278.27 C 507.43 280.52 508.09 285.08 507.87 288.97 C 508.19 295.43 506.17 302.78 500.55 306.55 C 496.87 309.10 492.19 308.84 487.94 308.57 C 483.15 307.88 478.50 304.75 476.87 300.05 C 476.23 294.75 476.13 289.21 478.03 284.14 C 479.68 280.32 483.17 277.31 487.17 276.16 M 489.94 284.93 C 487.56 288.57 488.57 293.28 490.52 296.88 C 496.65 297.31 497.70 289.53 496.49 285.05 C 495.70 281.98 491.41 282.89 489.94 284.93 Z" />
</g>
<g id="#000000ff">
<path fill="#000000" opacity="1.00" d=" M 366.00 199.50 C 434.83 199.50 503.67 199.50 572.50 199.50 C 572.50 242.83 572.50 286.17 572.50 329.50 C 503.67 329.50 434.83 329.50 366.00 329.50 C 366.00 286.17 366.00 242.83 366.00 199.50 M 512.67 217.42 C 512.67 220.17 512.67 222.91 512.62 225.66 C 514.00 225.88 515.37 226.10 516.76 226.32 C 516.71 236.66 516.70 247.01 516.77 257.35 C 520.55 257.41 524.33 257.42 528.11 257.33 C 528.36 251.48 527.71 245.62 528.17 239.77 C 533.21 239.77 538.26 239.84 543.30 239.52 C 543.29 237.22 543.27 234.90 542.80 232.64 C 538.68 233.48 534.48 233.34 530.31 233.33 C 530.27 231.79 530.23 230.25 530.19 228.72 C 536.60 228.73 543.02 229.21 549.42 228.59 C 549.41 224.85 549.41 221.11 549.41 217.38 C 537.17 217.13 524.91 217.08 512.67 217.42 M 459.19 219.12 C 459.29 222.56 459.38 226.01 459.65 229.45 C 460.59 229.15 461.53 228.85 462.48 228.56 C 462.59 237.63 462.40 246.70 462.59 255.78 C 470.47 255.94 478.34 255.91 486.22 255.78 C 486.34 253.80 486.46 251.81 486.53 249.83 C 484.50 250.20 482.49 250.59 480.46 250.93 C 480.26 240.33 480.44 229.74 480.37 219.14 C 473.31 219.25 466.25 219.01 459.19 219.12 M 399.15 220.26 C 399.10 224.16 399.21 228.05 399.29 231.94 C 402.05 231.90 404.81 231.89 407.55 232.25 C 407.54 238.21 407.76 244.20 407.25 250.14 C 407.25 252.23 405.78 254.01 403.89 254.74 C 401.63 255.36 400.73 252.64 399.37 251.41 C 396.59 252.72 393.75 253.89 390.90 255.05 C 392.74 257.72 394.40 261.07 397.78 262.01 C 404.11 263.98 411.96 262.25 416.01 256.73 C 417.85 253.87 418.53 250.40 418.71 247.04 C 419.06 238.11 419.75 229.17 419.36 220.23 C 412.63 220.38 405.89 220.15 399.15 220.26 M 422.73 220.72 C 422.70 223.19 422.66 225.66 422.59 228.13 C 423.63 228.28 424.68 228.45 425.73 228.63 C 425.70 236.51 425.69 244.39 425.67 252.26 C 427.29 253.17 428.92 254.31 430.86 254.31 C 437.65 254.80 444.48 254.76 451.26 254.14 C 453.63 253.73 454.38 251.04 454.31 248.96 C 454.41 241.30 454.34 233.64 454.34 225.99 C 454.13 224.56 454.73 222.78 453.49 221.72 C 448.71 221.58 443.94 221.51 439.17 221.70 C 438.93 229.72 439.34 237.81 438.51 245.79 C 437.19 248.26 435.67 245.71 435.84 244.06 C 435.76 236.30 435.90 228.54 435.82 220.78 C 431.45 220.75 427.09 220.82 422.73 220.72 M 493.72 221.20 C 493.84 223.02 493.91 224.84 493.99 226.67 C 498.88 226.29 503.76 225.72 508.55 224.60 C 508.53 223.59 508.51 221.57 508.49 220.57 C 503.56 220.62 498.65 221.10 493.72 221.20 M 494.10 230.08 C 494.13 237.84 494.30 245.59 494.45 253.35 C 499.13 253.35 503.80 253.31 508.48 253.46 C 508.57 244.92 508.49 236.37 508.53 227.83 C 503.68 228.32 498.86 229.06 494.10 230.08 M 388.59 249.09 C 389.01 250.31 389.44 251.53 389.88 252.75 C 392.82 251.57 395.75 250.35 398.67 249.12 C 398.44 248.38 397.98 246.91 397.74 246.18 C 394.68 247.13 391.65 248.14 388.59 249.09 M 394.25 269.46 C 394.76 271.94 395.33 274.42 395.88 276.89 C 397.39 276.82 398.90 276.74 400.43 276.67 C 401.29 289.26 400.48 301.90 400.76 314.51 C 408.47 314.65 416.18 314.64 423.89 314.53 C 431.24 314.39 439.18 311.70 443.04 305.01 C 443.53 302.97 443.54 300.87 443.52 298.80 C 440.04 293.47 434.13 290.76 428.45 288.45 C 431.55 284.59 435.23 279.70 432.48 274.62 C 429.57 270.11 424.18 268.07 418.96 268.31 C 410.72 268.53 402.35 267.53 394.25 269.46 M 513.20 276.94 C 511.32 286.31 511.40 295.96 511.41 305.48 C 516.28 310.74 524.07 309.91 530.54 311.04 C 536.46 311.25 542.62 311.97 548.38 310.14 C 548.68 306.61 548.63 303.06 548.56 299.51 C 549.27 299.20 550.68 298.56 551.39 298.25 C 550.70 295.10 550.69 291.88 550.68 288.69 C 543.77 289.49 536.82 289.26 529.89 289.50 C 529.88 291.88 529.88 294.26 529.87 296.64 C 532.08 296.70 534.35 296.66 536.49 297.37 C 536.40 299.05 536.32 300.73 536.25 302.42 C 532.38 302.51 528.48 302.38 524.74 301.32 C 524.85 294.84 524.58 288.32 525.13 281.87 C 525.71 278.46 529.76 278.65 532.43 278.50 C 532.38 276.43 532.36 274.36 532.35 272.29 C 527.90 271.74 523.35 271.38 518.89 271.98 C 516.28 272.29 513.48 274.14 513.20 276.94 M 534.85 272.38 C 534.84 274.30 534.84 276.23 534.84 278.17 C 536.03 278.60 537.22 279.05 538.39 279.55 C 538.43 281.11 538.49 282.69 538.54 284.27 C 541.19 284.20 543.83 284.04 546.48 283.82 C 546.43 280.16 546.79 276.47 546.19 272.85 C 542.41 272.52 538.62 272.58 534.85 272.38 M 444.54 273.52 C 444.71 276.87 445.12 280.21 445.57 283.54 C 446.31 283.56 447.77 283.59 448.50 283.61 C 448.91 292.51 448.86 301.43 448.82 310.34 C 456.74 310.48 464.67 310.41 472.59 310.38 C 472.73 308.44 472.84 306.50 472.95 304.56 C 470.75 304.91 468.57 305.25 466.37 305.50 C 466.20 294.95 466.35 284.40 466.30 273.85 C 459.05 273.49 451.79 273.79 444.54 273.52 M 487.17 276.16 C 483.17 277.31 479.68 280.32 478.03 284.14 C 476.13 289.21 476.23 294.75 476.87 300.05 C 478.50 304.75 483.15 307.88 487.94 308.57 C 492.19 308.84 496.87 309.10 500.55 306.55 C 506.17 302.78 508.19 295.43 507.87 288.97 C 508.09 285.08 507.43 280.52 503.83 278.27 C 499.12 274.56 492.70 274.74 487.17 276.16 Z" />
<path fill="#000000" opacity="1.00" d=" M 414.52 275.40 C 416.82 275.62 419.43 275.26 421.39 276.78 C 422.02 278.24 421.59 279.88 421.60 281.42 C 419.89 283.49 417.47 284.13 414.86 283.68 C 414.54 280.93 414.42 278.16 414.52 275.40 Z" />
<path fill="#000000" opacity="1.00" d=" M 489.94 284.93 C 491.41 282.89 495.70 281.98 496.49 285.05 C 497.70 289.53 496.65 297.31 490.52 296.88 C 488.57 293.28 487.56 288.57 489.94 284.93 Z" />
<path fill="#000000" opacity="1.00" d=" M 417.04 295.74 C 421.39 295.83 427.60 296.52 427.91 302.11 C 425.08 304.52 421.70 306.40 417.84 305.98 C 417.48 302.57 417.14 299.16 417.04 295.74 Z" />
</g>
</svg>
