<?xml version="1.0" encoding="UTF-8"?>
<svg version="1.1" xmlns="http://www.w3.org/2000/svg" width="512" height="512">
<path d="M0 0 C0.78442978 -0.00832352 1.56885956 -0.01664703 2.37705994 -0.02522278 C4.97310362 -0.04932871 7.56889524 -0.05810106 10.16503906 -0.06469727 C11.98187328 -0.07367204 13.79870678 -0.08279403 15.61553955 -0.09205627 C19.43202504 -0.10855665 23.2484228 -0.11624673 27.06494141 -0.11914062 C31.91307021 -0.12448697 36.76035084 -0.16200545 41.60824203 -0.20788479 C45.36794888 -0.23791965 49.12745943 -0.24487005 52.8872757 -0.24586678 C54.67155031 -0.25002672 56.45582787 -0.26228718 58.2399826 -0.28338432 C78.69094689 -0.50570243 94.67769224 4.65289602 109.89941406 18.93530273 C120.71602636 30.17791175 127.47292469 45.07992241 127.48706055 60.70678711 C127.49538406 61.50465134 127.50370758 62.30251556 127.51228333 63.1245575 C127.53619425 65.73730475 127.54513014 68.34980176 127.55175781 70.96264648 C127.56073544 72.79292876 127.56985748 74.62321034 127.57911682 76.45349121 C127.59555574 80.27964048 127.60329815 84.10570274 127.60620117 87.93188477 C127.6115932 92.8210331 127.6493289 97.70935852 127.69494534 102.59827423 C127.72475845 106.3748063 127.73192558 110.15114065 127.73292732 113.92778015 C127.73711774 115.7298308 127.74950451 117.53188268 127.77044487 119.33381653 C127.95219726 136.31843521 127.95219726 136.31843521 123.54164124 141.93151855 C123.09251877 142.38522827 122.6433963 142.83893799 122.18066406 143.30639648 C121.70451157 143.79910034 121.22835907 144.2918042 120.73777771 144.79943848 C115.96891702 149.20884905 110.84818608 150.82526214 104.39160156 150.61499023 C97.25444345 149.61881446 91.82084068 146.80324567 87.33691406 141.18530273 C84.46437883 136.51743298 83.92790892 132.61965547 83.90942383 127.16455078 C83.90419708 126.46466034 83.89897034 125.7647699 83.89358521 125.04367065 C83.88337752 123.5301251 83.87757046 122.01654475 83.87570381 120.50296593 C83.87202595 118.10165077 83.85525983 115.7007434 83.83494568 113.29951477 C83.77967664 106.4744935 83.748907 99.64941236 83.72436523 92.82421875 C83.70842649 88.64266863 83.67814097 84.46140788 83.63960075 80.28000832 C83.62800533 78.69294129 83.62202088 77.10582238 83.62191963 75.518713 C83.8489647 62.11895113 83.8489647 62.11895113 77.80566406 50.49389648 C71.57521234 45.30185338 67.16242079 44.18660348 59.15234375 44.16455078 C58.10272713 44.15933914 58.10272713 44.15933914 57.03190613 44.15402222 C55.51559997 44.14668433 53.99928321 44.14132849 52.48296356 44.13773155 C50.07760516 44.13054069 47.67244777 44.1148539 45.26715088 44.09638977 C38.42926824 44.04404913 31.59149657 43.99597789 24.75341797 43.98046875 C20.56644698 43.97035138 16.37998408 43.94093298 12.19321442 43.89914894 C10.60336409 43.88688774 9.01344186 43.88170872 7.42354584 43.88394737 C-2.47245451 43.89445124 -10.12077762 43.9005424 -17.63183594 36.55639648 C-21.62854793 30.61842439 -24.02719466 24.59472583 -22.81933594 17.30639648 C-20.66138984 9.76643008 -16.65383694 5.45064065 -10.19671631 1.25108337 C-6.83170671 -0.08605244 -3.56783187 0.00321947 0 0 Z " fill="#282828" transform="translate(320.8193359375,63.693603515625)"/>
<path d="M0 0 C0.79728012 -0.00817749 1.59456024 -0.01635498 2.41600037 -0.02478027 C5.05043805 -0.04956046 7.6848221 -0.06613156 10.31933594 -0.08056641 C11.22138512 -0.08589008 12.1234343 -0.09121376 13.0528183 -0.09669876 C17.82768401 -0.1233986 22.60252387 -0.1427834 27.37744141 -0.15722656 C31.3213624 -0.17056243 35.2647656 -0.198413 39.20849609 -0.23925781 C43.97885241 -0.28865756 48.74873935 -0.31335638 53.51934052 -0.32045364 C55.33256914 -0.32715201 57.14578787 -0.34233715 58.95886993 -0.36634445 C76.08764931 -0.58020697 76.08764931 -0.58020697 81.68377686 3.83065796 C82.1358551 4.28018829 82.58793335 4.72971863 83.05371094 5.19287109 C83.54623352 5.66906891 84.0387561 6.14526672 84.54620361 6.63589478 C88.95671037 11.4036076 90.57256231 16.52578776 90.36230469 22.98193359 C89.36612891 30.1190917 86.55056013 35.55269448 80.93261719 40.03662109 C76.26474743 42.90915633 72.36696992 43.44562624 66.91186523 43.46411133 C65.86202957 43.47195145 65.86202957 43.47195145 64.79098511 43.47994995 C63.27743955 43.49015763 61.76385921 43.4959647 60.25028038 43.49783134 C57.84896522 43.50150921 55.44805785 43.51827533 53.04682922 43.53858948 C46.22180795 43.59385852 39.39672682 43.62462816 32.5715332 43.64916992 C28.38998309 43.66510866 24.20872234 43.69539418 20.02732277 43.7339344 C18.44025575 43.74552983 16.85313683 43.75151427 15.26602745 43.75161552 C1.86626558 43.52457046 1.86626558 43.52457046 -9.75878906 49.56787109 C-14.95083217 55.79832282 -16.06608206 60.21111436 -16.08813477 68.22119141 C-16.09160919 68.92093582 -16.09508362 69.62068024 -16.09866333 70.34162903 C-16.10600122 71.85793519 -16.11135706 73.37425195 -16.11495399 74.89057159 C-16.12214485 77.29593 -16.13783165 79.70108739 -16.15629578 82.10638428 C-16.20863641 88.94426692 -16.25670765 95.78203859 -16.2722168 102.62011719 C-16.28233417 106.80708817 -16.31175256 110.99355107 -16.35353661 115.18032074 C-16.36579781 116.77017106 -16.37097683 118.36009329 -16.36873817 119.94998932 C-16.35823431 129.84598967 -16.35214315 137.49431277 -23.69628906 145.00537109 C-29.63426116 149.00208308 -35.65795971 151.40072982 -42.94628906 150.19287109 C-50.48914206 148.03409886 -54.79449402 144.02555368 -59.00259399 137.57322693 C-60.3431356 134.19187406 -60.24119814 130.90967795 -60.23681641 127.32592773 C-60.24353363 126.53667908 -60.25025085 125.74743042 -60.25717163 124.93426514 C-60.27617131 122.3237884 -60.28007809 119.71356896 -60.28222656 117.10302734 C-60.28865772 115.2790059 -60.29538632 113.45498549 -60.30239868 111.63096619 C-60.31437964 107.80188613 -60.31807913 103.9728963 -60.31689453 100.14379883 C-60.31669235 95.26858933 -60.34388576 90.3939694 -60.37843895 85.51889896 C-60.40083709 81.74644898 -60.40472799 77.97413736 -60.40367508 74.20162773 C-60.40601584 72.4065188 -60.4147521 70.61140516 -60.43033981 68.81636238 C-60.59138879 48.33724276 -55.31176275 31.9440568 -40.81738281 16.99755859 C-32.50791281 9.17862976 -22.74606483 4.60609034 -11.94628906 1.19287109 C-11.4004718 1.01613861 -10.85465454 0.83940613 -10.29229736 0.65731812 C-6.87467747 -0.0192794 -3.47054161 0.01973449 0 0 Z " fill="#282828" transform="translate(123.9462890625,63.80712890625)"/>
<path d="M0 0 C4.59335484 2.91223791 8.11229146 7.29259079 10.11328125 12.33984375 C10.31375543 14.9969902 10.40705735 17.5496861 10.40380859 20.20678711 C10.41052582 20.99603577 10.41724304 21.78528442 10.42416382 22.59844971 C10.4431635 25.20892645 10.44707028 27.81914589 10.44921875 30.4296875 C10.45564991 32.25370894 10.46237851 34.07772936 10.46939087 35.90174866 C10.48137183 39.73082871 10.48507131 43.55981854 10.48388672 47.38891602 C10.48368454 52.26412551 10.51087795 57.13874544 10.54543114 62.01381588 C10.56782928 65.78626587 10.57172018 69.55857748 10.57066727 73.33108711 C10.57300803 75.12619604 10.58174429 76.92130969 10.597332 78.71635246 C10.75032827 98.17148351 6.11799724 114.66589913 -7.55688477 129.22705078 C-18.37106437 140.14212603 -33.67376656 147.42115266 -49.12145996 147.64422607 C-50.20421204 147.64522308 -50.20421204 147.64522308 -51.30883789 147.64624023 C-52.09709457 147.65456375 -52.88535126 147.66288727 -53.69749451 147.67146301 C-56.27233988 147.69532595 -58.84693122 147.70430305 -61.421875 147.7109375 C-63.22830779 147.71991759 -65.03473987 147.72903966 -66.84117126 147.73829651 C-70.61426595 147.75472149 -74.38727254 147.76247548 -78.16040039 147.76538086 C-82.98114319 147.77077672 -87.80105294 147.80853406 -92.6215601 147.85412502 C-96.34747822 147.88393721 -100.07319595 147.89110522 -103.79922295 147.89210701 C-105.57615436 147.89629629 -107.35308709 147.90867841 -109.12989998 147.92962456 C-125.86610766 148.11133281 -125.86610766 148.11133281 -131.50291443 143.70082092 C-131.95956985 143.25169846 -132.41622528 142.80257599 -132.88671875 142.33984375 C-133.37974991 141.86369125 -133.87278107 141.38753876 -134.38075256 140.8969574 C-138.78846978 136.12650439 -140.4056005 131.00785981 -140.1953125 124.55078125 C-139.19913672 117.41362314 -136.38356794 111.98002037 -130.765625 107.49609375 C-126.09775524 104.62355851 -122.19997773 104.08708861 -116.74487305 104.06860352 C-115.69503738 104.0607634 -115.69503738 104.0607634 -114.62399292 104.05276489 C-113.11044736 104.04255721 -111.59686702 104.03675014 -110.08328819 104.0348835 C-107.68197303 104.03120564 -105.28106566 104.01443951 -102.87983704 103.99412537 C-96.05481577 103.93885632 -89.22973463 103.90808669 -82.40454102 103.88354492 C-78.2229909 103.86760618 -74.04173015 103.83732066 -69.86033058 103.79878044 C-68.27326356 103.78718502 -66.68614464 103.78120057 -65.09903526 103.78109932 C-51.69927339 104.00814439 -51.69927339 104.00814439 -40.07421875 97.96484375 C-34.88217564 91.73439202 -33.76692575 87.32160048 -33.74487305 79.31152344 C-33.73966141 78.26190681 -33.73966141 78.26190681 -33.73434448 77.19108582 C-33.7270066 75.67477966 -33.72165076 74.1584629 -33.71805382 72.64214325 C-33.71086296 70.23678485 -33.69517616 67.83162745 -33.67671204 65.42633057 C-33.6243714 58.58844793 -33.57630016 51.75067626 -33.56079102 44.91259766 C-33.55067365 40.72562667 -33.52125525 36.53916377 -33.47947121 32.3523941 C-33.46721 30.76254378 -33.46203099 29.17262155 -33.46426964 27.58272552 C-33.47477351 17.68672518 -33.48086466 10.03840207 -26.13671875 2.52734375 C-17.61977045 -3.20521761 -9.39712202 -4.56060671 0 0 Z " fill="#282828" transform="translate(437.88671875,300.66015625)"/>
<path d="M0 0 C4.83668498 4.19975527 7.75434843 8.8435362 8.25828552 15.31880188 C8.2646981 17.21120857 8.2646981 17.21120857 8.27124023 19.1418457 C8.27646698 19.84173615 8.28169373 20.54162659 8.28707886 21.26272583 C8.29728654 22.77627139 8.30309361 24.28985173 8.30496025 25.80343056 C8.30863811 28.20474572 8.32540424 30.60565309 8.34571838 33.00688171 C8.40098743 39.83190298 8.43175706 46.65698412 8.45629883 53.48217773 C8.47223757 57.66372785 8.50252309 61.8449886 8.54106331 66.02638817 C8.55265873 67.61345519 8.55864318 69.20057411 8.55874443 70.78768349 C8.33169936 84.18744536 8.33169936 84.18744536 14.375 95.8125 C20.60545173 101.00454311 25.01824327 102.119793 33.02832031 102.1418457 C34.07793694 102.14705734 34.07793694 102.14705734 35.14875793 102.15237427 C36.66506409 102.15971215 38.18138085 102.16506799 39.6977005 102.16866493 C42.1030589 102.17585579 44.5082163 102.19154259 46.91351318 102.21000671 C53.75139582 102.26234735 60.58916749 102.31041859 67.42724609 102.32592773 C71.61421708 102.3360451 75.80067998 102.3654635 79.98744965 102.40724754 C81.57729997 102.41950875 83.1672222 102.42468776 84.75711823 102.42244911 C94.65311857 102.41194524 102.30144168 102.40585409 109.8125 109.75 C113.80921199 115.6879721 116.20785872 121.71167065 115 129 C112.84142385 136.54216785 108.83237994 140.85465884 102.37561035 145.05729675 C99.01688455 146.39012548 95.76842208 146.28667986 92.20898438 146.2746582 C91.427883 146.27976913 90.64678162 146.28488007 89.8420105 146.29014587 C87.25917896 146.30404483 84.67661452 146.30308354 82.09375 146.30078125 C80.28975323 146.30467074 78.48575737 146.30900594 76.6817627 146.31376648 C72.89555907 146.32123134 69.10944865 146.32093748 65.32324219 146.31567383 C60.49959263 146.30990803 55.67633067 146.32673852 50.85274506 146.3500185 C47.12237357 146.36484806 43.39209314 146.36561458 39.66169739 146.36250877 C37.88531228 146.36301833 36.10892158 146.36818657 34.33256531 146.37832069 C14.51960411 146.4773996 -2.21113132 142.31777621 -16.91821289 128.34301758 C-25.70569259 119.51038898 -30.47400965 109.74321249 -34 98 C-34.26969101 97.16205902 -34.26969101 97.16205902 -34.54483032 96.30718994 C-35.21622886 92.90396686 -35.1732214 89.50933993 -35.19287109 86.05371094 C-35.20104858 85.25643082 -35.20922607 84.4591507 -35.21765137 83.63771057 C-35.24243155 81.00327289 -35.25900265 78.36888884 -35.2734375 75.734375 C-35.27876118 74.83232582 -35.28408485 73.93027664 -35.28956985 73.00089264 C-35.31626969 68.22602693 -35.33565449 63.45118707 -35.35009766 58.67626953 C-35.36343353 54.73234854 -35.39128409 50.78894534 -35.43212891 46.84521484 C-35.48152865 42.07485853 -35.50622748 37.30497159 -35.51332474 32.53437042 C-35.52002311 30.7211418 -35.53520825 28.90792307 -35.55921555 27.094841 C-35.77307807 9.96606163 -35.77307807 9.96606163 -31.36221313 4.36993408 C-30.9126828 3.91785583 -30.46315247 3.46577759 -30 3 C-29.52380219 2.50747742 -29.04760437 2.01495483 -28.55697632 1.50750732 C-20.10807443 -6.30838685 -9.42355113 -5.38938877 0 0 Z " fill="#282828" transform="translate(99,302)"/>
</svg>
