<?xml version="1.0" encoding="UTF-8" ?>
<!DOCTYPE svg PUBLIC "-//W3C//DTD SVG 1.1//EN" "http://www.w3.org/Graphics/SVG/1.1/DTD/svg11.dtd">
<svg width="1379pt" height="384pt" viewBox="0 0 1379 384" version="1.1" xmlns="http://www.w3.org/2000/svg">
<g id="#17bee5ff">
<path fill="#17bee5" stroke="#17bee5" stroke-width="0.09375" opacity="1.00" d=" M 43.63 60.78 C 198.77 59.02 353.89 56.94 509.03 55.15 C 610.04 56.61 711.04 58.19 812.05 59.75 C 839.03 60.03 866.02 60.93 893.00 60.50 C 1036.91 59.25 1180.81 56.75 1324.71 55.12 C 1320.49 94.73 1316.41 134.35 1312.13 173.95 C 1311.51 180.20 1313.90 186.16 1315.38 192.13 C 1320.29 211.03 1325.22 229.93 1330.17 248.83 C 1332.48 260.77 1332.38 273.02 1333.59 285.10 C 1334.95 302.99 1336.26 320.88 1337.63 338.77 C 1137.76 336.16 937.90 333.29 738.03 330.62 C 690.66 330.57 643.29 331.39 595.92 331.62 C 420.38 333.22 244.84 334.59 69.30 336.28 C 67.11 286.20 65.22 236.10 62.97 186.02 C 63.02 183.00 61.69 180.26 60.49 177.57 C 55.89 167.46 48.96 158.59 44.50 148.41 C 43.70 146.73 43.75 144.84 43.73 143.02 C 43.51 115.61 43.67 88.19 43.63 60.78 M 170.57 153.73 C 168.05 154.73 168.52 157.78 168.39 159.94 C 168.39 188.28 168.37 216.62 168.40 244.96 C 168.57 247.76 168.03 250.93 169.98 253.27 C 172.90 257.66 176.19 263.11 182.00 263.65 C 185.47 264.17 188.36 266.83 191.99 266.51 C 197.00 266.40 202.08 266.91 207.03 265.85 C 210.64 265.17 214.32 265.48 217.97 265.45 C 235.99 265.44 254.00 265.46 272.01 265.44 C 278.31 264.50 284.64 261.91 288.83 256.93 C 290.27 254.45 291.74 251.99 293.19 249.52 C 293.73 246.47 293.76 243.35 294.30 240.31 C 297.73 239.45 301.30 239.73 304.77 239.23 C 306.19 238.49 307.43 237.46 308.87 236.75 C 311.27 236.09 314.03 236.45 316.17 235.00 C 319.68 232.26 324.13 230.85 326.89 227.16 L 324.60 226.77 C 325.53 226.56 326.47 226.43 327.43 226.38 C 327.47 225.67 327.54 224.26 327.58 223.55 C 328.22 223.52 329.51 223.45 330.15 223.42 C 330.50 222.81 331.19 221.60 331.54 220.99 C 331.48 220.61 331.36 219.84 331.30 219.46 L 332.77 219.52 C 332.66 219.02 332.42 218.03 332.31 217.53 L 333.81 217.50 C 333.71 217.00 333.51 215.99 333.41 215.49 C 333.94 215.53 335.00 215.62 335.53 215.66 C 335.50 214.87 335.43 213.28 335.40 212.49 L 336.35 212.48 C 336.37 210.51 337.34 208.79 338.50 207.26 C 338.94 199.12 338.80 190.97 338.48 182.82 C 338.18 182.63 337.59 182.23 337.29 182.03 C 338.09 178.93 336.80 175.82 335.73 172.96 C 331.66 165.43 325.10 159.35 317.32 155.78 C 314.25 153.51 310.73 152.36 306.92 152.28 C 298.05 148.65 288.33 149.67 278.99 149.55 C 246.34 149.53 213.69 149.59 181.04 149.52 C 177.02 149.09 174.00 152.20 170.57 153.73 M 378.78 168.71 C 374.20 172.89 375.46 179.52 375.41 185.04 C 375.69 189.37 374.22 193.63 374.76 197.96 C 375.76 204.59 375.36 211.33 375.30 218.01 C 374.57 222.27 375.00 226.56 375.70 230.79 C 377.45 232.23 377.60 234.70 379.19 236.28 L 379.51 234.51 C 391.14 234.98 402.79 234.56 414.44 234.75 C 417.53 234.95 420.75 234.50 423.33 232.66 C 427.80 233.02 429.67 228.29 432.26 225.53 C 433.15 220.23 433.12 214.70 432.40 209.38 C 430.75 206.07 427.55 203.81 425.09 201.10 C 427.98 197.80 430.39 194.09 432.30 190.16 C 433.87 184.13 430.40 178.63 427.19 173.84 C 422.57 171.10 417.75 167.56 412.06 168.23 C 400.97 168.63 389.81 167.14 378.78 168.71 M 589.42 168.60 C 587.84 170.86 585.35 172.95 585.59 175.97 C 585.50 193.30 585.61 210.64 585.53 227.97 C 585.28 230.89 586.62 234.01 589.15 235.56 C 593.71 237.53 600.42 236.92 602.27 231.54 C 603.09 223.14 602.11 214.64 602.72 206.21 C 605.67 209.62 608.47 213.46 609.93 217.81 C 612.19 221.38 614.98 224.66 618.31 227.27 C 622.83 229.04 626.59 225.68 629.11 222.34 C 631.97 216.56 634.91 210.79 638.21 205.25 C 639.01 206.73 639.43 208.31 639.46 209.98 C 639.51 216.66 639.31 223.34 639.50 230.03 C 639.50 231.83 640.19 233.51 640.82 235.17 C 643.17 235.79 645.54 236.55 648.01 236.49 C 652.48 236.97 656.94 232.45 656.43 227.97 C 656.35 210.65 656.43 193.32 656.39 176.00 C 656.49 172.91 653.42 171.09 652.04 168.62 C 648.55 168.30 644.97 167.92 641.54 168.77 C 638.68 171.70 636.39 175.14 635.18 179.07 C 631.31 185.25 628.37 191.94 624.67 198.21 C 623.64 200.10 623.05 202.37 621.24 203.72 C 617.92 204.33 618.65 199.86 616.91 198.20 C 614.52 196.05 614.65 192.61 612.72 190.20 C 608.22 183.52 605.11 176.03 600.65 169.34 C 597.34 167.41 593.08 168.49 589.42 168.60 M 855.42 168.86 C 853.47 169.71 851.83 171.12 849.98 172.13 C 844.51 175.07 840.83 180.31 837.79 185.57 C 836.42 187.79 836.69 190.51 836.29 192.99 C 836.06 195.88 833.44 198.04 833.56 201.01 C 833.60 203.74 833.29 207.96 836.68 208.81 C 836.67 217.23 841.70 224.73 848.09 229.85 C 850.51 231.60 853.33 232.70 855.88 234.28 C 862.92 236.57 870.42 235.49 877.69 235.56 C 881.24 235.81 883.65 232.76 886.91 231.94 C 889.96 231.33 891.70 228.61 893.62 226.43 C 893.58 224.51 893.56 222.59 893.54 220.67 C 892.83 219.92 892.13 219.16 891.44 218.41 C 886.67 217.84 881.87 218.99 878.35 222.37 C 875.57 222.55 872.88 223.29 870.13 223.57 C 867.26 223.44 864.46 222.72 861.62 222.43 C 858.12 219.24 853.99 215.76 853.57 210.70 C 853.29 204.79 853.34 198.85 853.60 192.94 C 853.66 189.97 855.88 187.69 857.55 185.44 C 859.88 186.43 861.01 183.80 862.41 182.50 C 867.21 181.65 872.36 181.00 877.03 182.85 C 880.61 184.85 884.02 187.30 887.99 188.50 C 891.64 189.58 893.44 185.56 895.13 183.13 C 896.91 179.14 893.63 175.60 890.91 173.10 C 887.79 171.90 884.89 170.26 881.95 168.72 C 873.21 167.11 864.16 167.35 855.42 168.86 M 969.57 174.33 C 968.04 176.81 966.84 179.52 964.77 181.63 C 964.63 183.54 964.52 185.46 964.44 187.38 C 962.03 187.70 959.36 187.17 957.16 188.30 C 955.89 190.20 955.03 192.33 953.81 194.24 C 955.22 196.27 956.68 198.28 957.93 200.42 C 959.73 200.48 961.53 200.54 963.36 200.56 C 964.01 201.95 964.65 203.39 964.55 204.97 C 964.57 213.35 964.37 221.73 964.58 230.10 C 964.48 231.53 965.50 232.62 966.37 233.64 C 969.48 238.19 975.93 236.50 980.41 235.31 C 981.55 232.69 982.60 229.96 982.51 227.06 C 982.62 218.61 982.49 210.17 982.54 201.72 C 984.29 201.02 986.12 200.47 988.04 200.54 C 992.57 200.54 997.21 200.06 1001.60 201.47 C 1003.28 211.61 1001.30 222.02 1002.65 232.19 C 1003.71 237.28 1010.10 236.67 1014.03 236.19 C 1017.99 234.65 1019.95 230.05 1019.90 225.99 C 1021.25 217.57 1018.06 208.94 1020.64 200.64 C 1024.36 200.41 1029.80 201.65 1031.51 197.22 C 1031.71 194.74 1032.87 190.81 1029.78 189.77 C 1029.72 189.46 1029.59 188.83 1029.52 188.52 C 1026.09 188.50 1022.61 188.47 1019.30 187.48 C 1019.37 185.93 1019.42 184.37 1019.69 182.84 C 1021.72 179.77 1025.91 180.64 1029.05 180.41 C 1030.56 179.01 1032.10 177.63 1033.67 176.29 C 1033.77 173.77 1033.13 171.32 1031.64 169.27 L 1030.13 169.28 L 1031.27 168.54 C 1025.08 167.91 1018.84 168.26 1012.67 168.75 C 1009.64 172.53 1004.60 174.65 1002.86 179.46 C 1002.10 181.99 1003.37 185.39 1001.10 187.23 C 995.02 188.17 988.85 187.59 982.75 187.31 C 983.48 185.29 984.15 183.06 986.02 181.78 C 989.33 181.03 992.96 181.91 996.06 180.16 C 997.49 176.46 997.71 172.49 996.21 168.76 C 987.15 167.01 976.23 166.89 969.57 174.33 M 757.53 188.76 C 755.75 190.28 753.88 191.69 751.90 192.94 C 750.18 196.75 750.35 201.27 753.30 204.43 C 756.64 204.83 760.29 204.98 763.31 203.23 C 767.57 200.97 773.34 200.35 777.36 203.42 C 777.72 204.40 778.44 206.37 778.80 207.35 C 778.19 207.41 776.98 207.51 776.37 207.57 C 773.05 205.46 768.73 206.98 765.01 206.59 C 758.11 206.12 752.01 210.87 748.73 216.60 C 748.01 219.61 748.20 222.82 748.61 225.87 C 750.75 230.09 754.80 232.78 757.95 236.16 C 762.99 236.59 768.06 236.70 773.11 236.36 C 774.92 236.22 776.41 235.08 777.99 234.31 C 782.19 237.10 787.32 236.61 792.11 236.34 C 791.82 236.32 791.25 236.28 790.96 236.26 C 793.48 233.72 796.28 230.83 796.26 226.99 C 796.47 218.75 796.44 210.47 795.41 202.28 C 793.43 196.74 790.54 190.98 784.92 188.38 C 780.75 187.04 776.29 187.62 771.99 187.47 C 767.13 187.29 762.29 187.82 757.53 188.76 M 448.36 188.40 L 448.30 188.95 C 445.93 189.60 444.89 191.99 443.55 193.80 C 443.54 202.21 443.55 210.63 443.53 219.04 C 443.19 223.51 446.14 227.15 447.92 231.00 C 450.26 232.22 452.31 233.90 454.57 235.26 C 458.57 236.81 462.91 236.02 467.06 235.66 C 470.50 235.70 472.94 232.80 476.21 232.11 C 477.00 233.32 477.81 234.53 478.62 235.74 C 481.51 235.57 484.41 235.53 487.32 235.46 C 488.91 233.64 490.95 231.74 490.55 229.06 C 490.47 216.63 490.71 204.20 490.40 191.78 C 489.39 190.71 488.39 189.63 487.40 188.54 C 484.52 188.42 481.64 188.40 478.76 188.46 C 477.37 190.56 475.96 192.66 474.54 194.74 C 474.56 201.82 474.66 208.90 474.52 215.98 C 474.72 218.51 473.05 220.52 471.74 222.50 C 468.69 222.65 465.65 222.70 462.61 222.58 C 461.89 221.84 461.17 221.09 460.45 220.35 C 460.03 210.72 461.19 201.00 459.36 191.48 C 458.39 190.48 457.44 189.48 456.48 188.49 C 453.77 188.45 451.07 188.42 448.36 188.40 M 501.65 188.57 C 499.10 190.42 496.28 193.63 497.82 196.99 C 501.45 203.72 504.53 210.73 508.22 217.42 C 509.11 221.76 513.48 224.55 513.52 229.16 C 514.00 234.01 510.29 237.66 508.66 241.88 C 508.38 244.30 507.99 247.19 509.73 249.19 C 511.84 251.97 515.85 251.83 518.91 251.09 C 520.75 249.88 521.67 247.71 523.07 246.05 C 525.29 243.59 525.45 240.05 527.55 237.50 C 532.76 227.08 537.98 216.64 543.23 206.21 C 545.40 201.51 550.67 196.80 547.73 191.25 C 545.95 186.90 540.53 188.68 536.91 188.49 C 534.92 191.13 532.44 193.64 531.94 197.06 C 531.44 199.80 529.28 201.77 528.44 204.37 C 527.43 207.77 524.91 210.39 523.68 213.68 C 523.19 213.62 522.22 213.49 521.73 213.43 C 521.78 209.59 519.90 206.35 517.94 203.22 C 517.16 199.42 514.36 196.61 513.02 193.05 C 512.28 191.18 510.74 189.84 509.42 188.40 C 506.83 188.38 504.21 188.11 501.65 188.57 M 675.33 192.38 C 672.69 193.66 671.24 196.33 669.61 198.62 C 665.69 203.89 666.42 210.86 666.65 217.03 C 666.75 222.57 670.46 227.11 674.26 230.75 C 677.13 232.20 680.01 233.62 682.75 235.33 C 687.44 236.05 692.24 235.60 696.98 235.66 C 701.28 235.74 705.11 233.63 708.81 231.72 C 711.07 232.80 712.15 230.51 712.88 228.82 C 714.67 225.05 711.20 221.63 710.13 218.17 C 711.72 216.42 713.51 214.76 714.59 212.62 C 715.71 210.28 715.05 207.64 714.86 205.18 C 714.21 205.26 712.91 205.42 712.27 205.50 C 711.98 208.64 713.04 212.23 711.29 215.06 C 711.70 209.96 712.10 204.60 710.19 199.73 C 708.17 196.23 705.77 192.76 702.12 190.80 C 697.65 186.90 691.38 188.71 686.00 188.29 C 681.89 187.72 678.74 190.65 675.33 192.38 M 909.28 192.30 C 904.24 195.17 901.71 200.71 899.73 205.90 C 899.32 209.63 899.33 213.42 899.66 217.16 C 900.61 219.84 901.85 222.43 903.04 225.02 C 905.86 230.25 911.35 233.18 916.59 235.42 C 921.99 235.93 927.44 235.70 932.86 235.58 C 935.72 235.64 937.59 233.10 940.12 232.16 C 943.91 230.85 945.95 227.19 948.15 224.11 C 951.53 219.44 950.48 213.36 950.57 207.96 C 950.80 203.26 948.05 199.25 945.41 195.62 C 942.93 192.10 938.27 191.50 935.26 188.59 C 929.53 188.58 923.80 187.19 918.12 188.36 C 914.78 188.58 912.12 190.78 909.28 192.30 M 1049.74 188.55 C 1045.98 191.44 1041.35 193.46 1038.76 197.63 C 1037.40 200.43 1036.23 203.32 1034.96 206.16 C 1032.73 216.27 1036.93 228.73 1046.94 233.06 C 1049.11 234.31 1051.30 235.87 1053.96 235.65 C 1059.36 235.60 1064.87 236.15 1070.21 235.23 C 1073.40 233.32 1076.87 231.95 1080.22 230.32 C 1080.63 228.78 1081.10 227.26 1081.60 225.74 C 1080.13 221.67 1075.16 219.07 1071.13 221.06 C 1067.40 222.98 1063.14 223.72 1058.98 223.42 C 1055.30 223.30 1051.72 220.28 1051.30 216.60 C 1059.52 216.43 1067.74 216.68 1075.96 216.46 C 1078.76 216.43 1081.30 213.86 1081.42 211.08 C 1082.41 201.07 1075.23 191.19 1065.67 188.39 C 1060.41 187.13 1055.05 188.64 1049.74 188.55 M 1103.68 188.62 C 1099.74 191.57 1094.83 193.76 1092.44 198.31 C 1091.30 201.21 1089.90 203.98 1088.71 206.86 C 1088.35 210.24 1088.35 213.69 1088.70 217.08 C 1090.88 223.13 1093.71 230.11 1100.24 232.53 C 1100.29 233.28 1100.41 234.80 1100.46 235.55 C 1107.81 237.57 1115.54 236.76 1123.07 236.69 C 1127.89 236.85 1131.07 232.58 1135.48 231.32 C 1136.00 229.26 1136.63 227.14 1136.34 224.98 C 1136.14 221.29 1132.36 219.51 1130.66 216.57 C 1132.80 215.97 1135.10 214.63 1135.29 212.15 C 1135.46 208.71 1136.15 204.85 1134.23 201.77 C 1132.04 197.82 1129.90 193.53 1125.73 191.32 C 1119.44 186.35 1111.03 187.79 1103.68 188.62 Z" />
<path fill="#17bee5" stroke="#17bee5" stroke-width="0.09375" opacity="1.00" d=" M 294.33 181.33 C 298.11 181.54 302.22 180.67 305.76 182.32 C 307.95 184.56 309.27 187.52 311.41 189.83 C 311.52 193.57 311.85 197.36 311.25 201.08 C 307.72 206.90 301.31 211.13 294.33 210.77 C 293.19 201.02 293.91 191.13 294.33 181.33 Z" />
<path fill="#17bee5" stroke="#17bee5" stroke-width="0.09375" opacity="1.00" d=" M 394.90 181.72 C 400.41 181.19 406.04 181.33 411.47 182.51 C 412.54 184.34 413.62 186.17 414.70 188.01 C 412.81 190.85 411.10 195.16 407.04 195.06 C 402.92 195.02 398.28 195.96 394.47 194.53 C 394.36 190.31 393.65 185.77 394.90 181.72 Z" />
<path fill="#17bee5" stroke="#17bee5" stroke-width="0.09375" opacity="1.00" d=" M 919.89 201.21 C 924.40 199.76 929.95 199.97 933.32 203.72 C 934.69 209.20 935.56 215.52 932.68 220.66 C 929.64 224.43 924.17 223.48 919.93 223.21 C 919.85 222.93 919.69 222.39 919.61 222.12 C 918.76 218.03 915.32 214.52 916.28 210.13 C 917.20 207.05 919.08 204.34 919.89 201.21 Z" />
<path fill="#17bee5" stroke="#17bee5" stroke-width="0.09375" opacity="1.00" d=" M 394.35 209.27 C 400.68 207.91 407.50 208.33 413.67 210.26 C 416.82 213.03 415.66 218.02 414.47 221.54 C 407.92 223.27 401.09 222.58 394.40 222.58 C 394.23 218.15 394.29 213.71 394.35 209.27 Z" />
</g>
<g id="#0e758dff">
<path fill="#0e758d" stroke="#0e758d" stroke-width="0.09375" opacity="1.00" d=" M 170.57 153.73 C 174.00 152.20 177.02 149.09 181.04 149.52 C 213.69 149.59 246.34 149.53 278.99 149.55 C 288.33 149.67 298.05 148.65 306.92 152.28 C 310.73 152.36 314.25 153.51 317.32 155.78 C 325.10 159.35 331.66 165.43 335.73 172.96 C 336.80 175.82 338.09 178.93 337.29 182.03 C 334.67 178.77 334.31 174.30 331.57 171.09 C 326.18 163.16 317.81 157.81 308.92 154.59 C 302.99 153.54 296.96 153.06 290.96 152.56 C 254.65 152.57 218.34 152.59 182.03 152.54 C 177.94 152.41 174.22 154.30 170.72 156.19 C 170.25 159.45 169.73 162.71 169.71 166.01 C 169.77 187.33 169.72 208.66 169.74 229.98 C 169.77 235.76 169.46 241.59 170.37 247.33 C 172.33 254.00 176.71 260.61 183.93 262.14 C 193.89 263.56 203.97 262.47 213.98 262.47 C 233.00 262.50 252.02 262.44 271.05 262.50 C 274.25 262.43 277.75 262.54 280.52 260.65 C 283.76 258.45 287.24 255.87 288.30 251.89 C 288.55 252.87 289.39 253.43 290.20 253.90 L 289.38 252.06 C 290.85 247.22 291.92 242.14 294.43 237.70 C 299.47 237.71 304.21 235.86 309.09 234.89 C 315.18 234.27 319.36 229.31 324.60 226.77 L 326.89 227.16 C 324.13 230.85 319.68 232.26 316.17 235.00 C 314.03 236.45 311.27 236.09 308.87 236.75 C 307.43 237.46 306.19 238.49 304.77 239.23 C 301.30 239.73 297.73 239.45 294.30 240.31 C 293.76 243.35 293.73 246.47 293.19 249.52 C 291.74 251.99 290.27 254.45 288.83 256.93 C 284.64 261.91 278.31 264.50 272.01 265.44 C 254.00 265.46 235.99 265.44 217.97 265.45 C 214.32 265.48 210.64 265.17 207.03 265.85 C 202.08 266.91 197.00 266.40 191.99 266.51 C 188.36 266.83 185.47 264.17 182.00 263.65 C 176.19 263.11 172.90 257.66 169.98 253.27 C 168.03 250.93 168.57 247.76 168.40 244.96 C 168.37 216.62 168.39 188.28 168.39 159.94 C 168.52 157.78 168.05 154.73 170.57 153.73 Z" />
</g>
<g id="#0a1f25ff">
<path fill="#0a1f25" stroke="#0a1f25" stroke-width="0.09375" opacity="1.00" d=" M 170.72 156.19 C 174.22 154.30 177.94 152.41 182.03 152.54 C 218.34 152.59 254.65 152.57 290.96 152.56 C 296.96 153.06 302.99 153.54 308.92 154.59 C 317.81 157.81 326.18 163.16 331.57 171.09 C 334.31 174.30 334.67 178.77 337.29 182.03 C 337.59 182.23 338.18 182.63 338.48 182.82 C 338.80 190.97 338.94 199.12 338.50 207.26 C 337.34 208.79 336.37 210.51 336.35 212.48 L 335.40 212.49 C 335.43 213.28 335.50 214.87 335.53 215.66 C 335.00 215.62 333.94 215.53 333.41 215.49 C 333.51 215.99 333.71 217.00 333.81 217.50 L 332.31 217.53 C 332.42 218.03 332.66 219.02 332.77 219.52 L 331.30 219.46 C 331.36 219.84 331.48 220.61 331.54 220.99 C 331.19 221.60 330.50 222.81 330.15 223.42 C 329.51 223.45 328.22 223.52 327.58 223.55 C 327.54 224.26 327.47 225.67 327.43 226.38 C 326.47 226.43 325.53 226.56 324.60 226.77 C 319.36 229.31 315.18 234.27 309.09 234.89 C 304.68 235.32 299.98 236.11 295.82 234.09 C 298.76 232.86 302.05 233.26 305.02 232.16 C 309.06 230.60 312.83 228.40 316.80 226.67 C 323.97 221.40 331.21 214.38 332.47 205.14 C 333.44 204.30 334.43 203.47 335.41 202.63 C 335.02 196.88 337.31 189.92 332.48 185.45 C 332.29 183.23 331.90 180.98 330.95 178.94 C 327.32 172.03 321.88 166.03 314.97 162.29 C 309.57 159.77 303.98 156.82 297.82 157.36 C 291.58 156.27 285.26 156.82 278.97 156.72 C 249.99 156.71 221.01 156.72 192.03 156.71 C 187.25 156.67 182.42 156.41 177.74 157.56 C 176.46 159.35 175.07 161.05 173.53 162.63 C 173.55 160.68 172.92 158.91 171.31 157.76 C 171.16 157.37 170.87 156.59 170.72 156.19 Z" />
</g>
<g id="#050303ff">
<path fill="#050303" stroke="#050303" stroke-width="0.09375" opacity="1.00" d=" M 169.71 166.01 C 169.73 162.71 170.25 159.45 170.72 156.19 C 170.87 156.59 171.16 157.37 171.31 157.76 C 172.92 158.91 173.55 160.68 173.53 162.63 C 173.15 188.09 173.50 213.57 173.35 239.03 C 173.34 241.28 173.34 243.54 173.73 245.76 C 172.60 246.27 171.48 246.79 170.37 247.33 C 169.46 241.59 169.77 235.76 169.74 229.98 C 169.72 208.66 169.77 187.33 169.71 166.01 Z" />
</g>
<g id="#707070ff">
<path fill="#707070" stroke="#707070" stroke-width="0.09375" opacity="1.00" d=" M 177.74 157.56 C 182.42 156.41 187.25 156.67 192.03 156.71 C 221.01 156.72 249.99 156.71 278.97 156.72 C 285.26 156.82 291.58 156.27 297.82 157.36 C 297.38 157.61 296.50 158.12 296.06 158.37 C 261.73 158.75 227.37 158.42 193.03 158.53 C 188.19 158.72 183.15 157.81 178.49 159.54 C 178.48 160.20 178.46 161.54 178.45 162.21 C 178.27 161.17 178.07 160.14 177.86 159.12 C 177.15 161.67 176.40 164.25 176.42 166.93 C 176.46 189.95 176.45 212.97 176.43 235.98 C 176.46 240.71 175.91 245.78 178.44 250.04 C 180.01 253.61 185.13 253.63 186.13 257.52 C 181.76 257.42 177.82 253.98 176.45 249.93 C 175.86 248.34 174.93 246.94 173.73 245.76 C 173.34 243.54 173.34 241.28 173.35 239.03 C 173.50 213.57 173.15 188.09 173.53 162.63 C 175.07 161.05 176.46 159.35 177.74 157.56 Z" />
</g>
<g id="#858585ff">
<path fill="#858585" stroke="#858585" stroke-width="0.09375" opacity="1.00" d=" M 297.82 157.36 C 303.98 156.82 309.57 159.77 314.97 162.29 C 321.88 166.03 327.32 172.03 330.95 178.94 C 331.90 180.98 332.29 183.23 332.48 185.45 C 333.04 192.02 334.00 198.62 332.47 205.14 C 331.21 214.38 323.97 221.40 316.80 226.67 C 312.83 228.40 309.06 230.60 305.02 232.16 C 304.47 231.93 303.38 231.47 302.83 231.24 C 306.10 228.14 310.65 227.48 314.61 225.73 C 321.28 220.82 327.41 214.60 330.35 206.69 C 331.73 201.95 331.56 196.93 331.38 192.05 C 331.11 188.50 331.14 184.76 329.55 181.49 C 327.70 177.66 326.10 173.49 322.57 170.86 C 319.22 167.58 315.07 165.36 311.19 162.80 C 306.91 162.07 302.89 159.95 298.45 160.35 C 297.85 159.86 296.66 158.86 296.06 158.37 C 296.50 158.12 297.38 157.61 297.82 157.36 Z" />
</g>
<g id="#dadadaff">
<path fill="#dadada" stroke="#dadada" stroke-width="0.09375" opacity="1.00" d=" M 176.42 166.93 C 176.40 164.25 177.15 161.67 177.86 159.12 C 178.07 160.14 178.27 161.17 178.45 162.21 C 178.54 191.48 178.61 220.77 178.44 250.04 C 175.91 245.78 176.46 240.71 176.43 235.98 C 176.45 212.97 176.46 189.95 176.42 166.93 Z" />
</g>
<g id="#ffffffff">
<path fill="#ffffff" stroke="#ffffff" stroke-width="0.09375" opacity="1.00" d=" M 178.49 159.54 C 183.15 157.81 188.19 158.72 193.03 158.53 C 227.37 158.42 261.73 158.75 296.06 158.37 C 296.66 158.86 297.85 159.86 298.45 160.35 C 302.89 159.95 306.91 162.07 311.19 162.80 C 315.07 165.36 319.22 167.58 322.57 170.86 C 323.92 176.94 329.10 181.60 329.57 187.98 C 329.79 193.22 330.04 198.53 329.36 203.75 C 327.63 210.03 323.88 215.71 319.04 220.04 C 316.38 222.41 313.66 225.11 309.98 225.66 C 307.15 226.12 304.69 227.55 302.25 228.96 C 296.91 231.00 290.49 228.21 285.47 231.33 C 281.42 235.39 285.43 242.27 281.93 246.66 C 280.41 248.60 278.97 250.71 276.95 252.15 C 272.19 253.92 266.97 253.32 261.99 253.42 C 243.38 253.46 224.76 253.25 206.15 253.52 C 206.44 254.75 206.72 255.99 207.02 257.23 C 225.68 256.87 244.35 257.05 263.01 257.10 C 267.71 257.42 272.32 256.46 276.92 255.66 L 275.94 256.25 C 274.05 257.06 272.01 257.51 269.96 257.48 C 250.29 257.48 230.61 257.44 210.94 257.49 C 202.67 257.69 194.40 257.79 186.13 257.52 C 185.13 253.63 180.01 253.61 178.44 250.04 C 178.61 220.77 178.54 191.48 178.45 162.21 C 178.46 161.54 178.48 160.20 178.49 159.54 M 285.43 175.44 C 285.63 188.67 285.37 201.91 285.56 215.15 C 287.66 215.77 288.77 217.74 289.92 219.43 C 294.81 220.11 299.49 218.29 304.35 218.31 C 304.38 217.93 304.44 217.17 304.47 216.78 C 306.68 216.52 309.20 216.51 310.90 214.81 C 313.29 212.54 316.15 210.44 317.26 207.19 C 317.68 205.26 319.09 203.86 320.41 202.48 C 320.62 197.84 320.50 193.19 320.46 188.55 L 319.39 188.55 C 319.39 187.89 319.39 186.57 319.38 185.91 C 317.04 185.42 317.04 182.72 316.32 180.90 C 314.78 179.93 313.39 178.75 313.11 176.85 C 310.77 176.09 309.11 174.23 307.39 172.59 C 301.61 172.39 295.82 172.30 290.04 172.49 C 287.96 172.31 286.72 174.14 285.43 175.44 M 200.69 180.76 C 199.23 182.85 197.55 184.77 195.68 186.51 C 195.30 192.35 195.36 198.20 195.47 204.05 C 195.62 205.26 195.35 206.72 196.26 207.70 C 201.80 215.09 208.01 221.99 215.11 227.90 C 219.08 231.27 222.13 236.43 227.39 237.79 L 226.79 235.59 L 227.35 236.11 C 227.37 236.88 227.39 237.66 227.41 238.44 C 227.63 241.83 232.26 240.00 234.53 240.35 C 237.49 237.30 241.20 235.10 244.04 231.93 C 250.29 225.25 257.43 219.34 262.67 211.78 L 262.33 210.21 C 269.03 207.36 266.98 198.71 267.31 192.94 C 268.00 188.02 263.79 184.93 261.79 180.99 C 258.63 180.34 255.30 179.54 253.43 176.66 C 249.68 176.47 245.86 176.05 242.16 176.78 C 239.03 178.86 235.82 181.00 232.06 181.73 C 227.82 181.63 224.17 179.16 220.80 176.84 C 217.31 176.21 213.68 176.27 210.17 176.72 C 207.44 178.98 204.13 180.09 200.69 180.76 Z" />
<path fill="#ffffff" stroke="#ffffff" stroke-width="0.09375" opacity="1.00" d=" M 378.33 173.95 C 380.68 172.46 383.01 170.44 385.98 170.61 C 393.99 170.55 402.00 170.68 410.02 170.56 C 414.04 170.21 417.18 173.11 420.77 174.39 C 424.02 175.61 427.32 178.15 427.40 181.94 C 427.68 185.75 428.13 189.88 426.53 193.46 C 423.85 196.52 420.52 199.12 419.01 203.05 C 424.97 205.34 430.02 210.45 430.70 216.98 C 430.08 221.61 427.23 225.83 423.97 229.07 C 420.61 230.70 416.60 231.33 414.44 234.75 C 402.79 234.56 391.14 234.98 379.51 234.51 C 379.13 232.02 378.46 229.57 378.38 227.05 C 378.38 209.35 378.49 191.65 378.33 173.95 M 389.72 178.69 C 388.61 183.73 388.26 188.95 388.92 194.08 C 389.08 195.48 389.67 197.27 391.36 197.33 C 397.54 197.99 403.79 197.62 409.99 197.63 C 413.80 198.13 417.56 194.78 417.62 190.99 C 417.74 187.58 418.10 183.91 416.33 180.83 C 412.98 180.22 409.42 179.51 407.20 176.67 C 402.82 176.40 398.42 176.30 394.04 176.53 C 392.31 176.49 391.08 177.84 389.72 178.69 M 392.33 203.73 C 391.10 203.99 389.76 204.75 389.57 206.11 C 388.27 210.95 388.55 216.04 388.73 220.99 C 388.96 223.47 389.35 226.94 392.32 227.54 C 397.11 228.78 402.18 228.47 407.08 228.14 C 410.38 226.71 413.55 225.00 416.99 223.89 C 418.81 222.12 420.17 219.87 421.18 217.56 C 422.11 214.04 419.51 210.91 417.63 208.20 C 416.20 206.09 413.18 207.07 411.27 205.79 C 409.57 204.86 408.10 203.20 405.99 203.46 C 401.44 203.45 396.85 203.19 392.33 203.73 Z" />
<path fill="#ffffff" stroke="#ffffff" stroke-width="0.09375" opacity="1.00" d=" M 589.33 176.99 C 589.04 174.46 590.43 172.34 591.79 170.36 C 593.54 170.38 595.30 170.40 597.06 170.43 C 598.39 172.10 599.83 173.68 601.28 175.25 C 601.09 179.35 605.48 181.13 606.10 184.98 C 608.87 189.61 611.77 194.22 613.91 199.20 C 615.79 201.67 617.64 204.24 617.76 207.49 C 619.57 207.51 621.40 207.52 623.23 207.54 C 625.46 204.41 626.19 200.51 628.49 197.42 C 630.09 193.70 633.30 190.68 633.76 186.53 C 635.13 184.93 636.62 183.34 637.25 181.28 C 638.60 176.91 641.68 173.47 644.56 170.05 C 647.68 170.77 651.79 171.89 651.45 175.96 C 651.69 192.29 651.38 208.64 651.58 224.97 C 651.49 227.68 651.71 230.61 650.31 233.04 C 648.56 233.77 646.68 234.13 644.86 234.61 C 644.03 233.06 642.59 231.69 642.39 229.88 C 641.92 220.58 642.78 211.23 641.94 201.96 C 641.88 199.31 640.25 197.22 638.07 195.89 C 634.62 202.83 630.74 209.55 627.24 216.47 C 626.10 218.49 625.00 220.70 623.04 222.04 C 620.64 223.46 617.82 221.81 616.39 219.79 C 612.34 214.18 609.48 207.84 606.06 201.84 C 604.30 198.86 601.59 195.65 597.72 196.49 C 597.16 207.95 597.19 219.47 597.61 230.94 C 597.65 231.63 597.75 233.02 597.79 233.71 C 595.84 234.53 593.72 234.58 591.66 234.65 C 590.61 232.90 589.17 231.18 589.34 229.01 C 589.29 211.67 589.32 194.33 589.33 176.99 Z" />
<path fill="#ffffff" stroke="#ffffff" stroke-width="0.09375" opacity="1.00" d=" M 859.52 173.25 C 860.61 172.33 861.71 171.40 862.81 170.47 C 867.73 170.92 873.21 169.25 877.63 172.10 C 880.01 173.58 882.87 173.60 885.49 174.39 C 887.53 175.28 889.01 177.06 890.67 178.51 C 890.67 180.24 890.68 181.98 890.71 183.71 C 888.56 183.54 885.94 184.41 884.31 182.61 C 881.54 179.59 877.17 180.06 873.48 179.48 C 872.78 178.47 872.15 177.43 871.48 176.41 C 869.15 176.22 867.49 177.65 866.11 179.31 C 863.00 179.77 859.41 179.70 857.09 182.15 C 855.34 183.91 852.82 185.37 852.44 188.02 C 851.84 191.15 850.49 194.05 849.69 197.12 C 849.33 200.68 849.27 204.32 849.77 207.87 C 850.92 211.30 852.38 214.65 852.84 218.28 C 855.10 220.25 857.11 222.57 859.70 224.11 C 862.12 224.79 864.91 224.41 866.99 226.08 C 868.30 227.15 869.87 227.69 871.58 227.69 C 872.37 226.68 873.15 225.66 873.98 224.67 C 876.32 224.54 878.75 224.72 881.05 224.09 C 883.72 222.79 885.81 219.71 889.15 220.51 C 891.54 220.99 890.42 223.92 890.77 225.62 C 889.20 227.19 887.63 228.76 886.04 230.29 C 883.12 230.48 880.12 230.88 877.65 232.55 C 873.96 235.19 869.22 234.15 865.00 234.26 C 862.14 234.59 860.49 231.78 858.00 231.02 C 851.00 230.26 844.77 224.96 842.33 218.41 C 840.93 214.63 838.14 211.23 838.51 206.98 C 838.68 202.18 837.79 197.13 839.40 192.52 C 841.85 188.23 842.70 182.99 846.46 179.53 C 850.09 176.27 854.43 173.22 859.52 173.25 Z" />
<path fill="#ffffff" stroke="#ffffff" stroke-width="0.09375" opacity="1.00" d=" M 974.31 175.35 C 979.08 173.39 983.56 169.43 989.06 170.55 C 991.67 170.59 994.65 172.27 994.75 175.16 C 992.12 177.36 988.30 175.69 985.49 177.40 C 982.22 179.47 978.43 182.49 979.46 186.89 C 979.25 189.97 982.95 189.51 984.99 189.75 C 988.07 189.61 990.75 191.08 993.41 192.42 C 995.09 193.36 996.22 191.16 997.47 190.40 C 999.67 189.99 1001.87 189.54 1004.09 189.14 C 1004.56 184.00 1006.86 179.15 1010.56 175.56 C 1016.07 172.16 1022.44 169.56 1029.05 170.53 C 1029.60 171.72 1030.17 172.90 1030.75 174.08 C 1030.34 174.63 1029.51 175.72 1029.09 176.27 C 1021.93 175.43 1015.80 181.59 1015.19 188.46 C 1018.36 189.30 1021.64 189.61 1024.89 190.09 C 1027.70 190.29 1028.70 193.33 1030.07 195.31 C 1026.45 196.51 1022.59 196.09 1018.91 196.79 C 1017.04 198.26 1015.38 200.39 1015.48 202.89 C 1015.04 213.08 1016.33 223.38 1014.45 233.48 C 1012.49 233.52 1010.46 234.03 1008.56 233.49 C 1006.72 232.25 1004.74 230.48 1004.73 228.09 C 1004.45 223.06 1004.77 218.02 1004.68 212.98 C 1004.54 207.23 1005.40 201.26 1003.30 195.75 C 996.87 195.66 990.43 195.50 984.00 195.68 C 981.96 195.53 979.71 196.89 979.69 199.10 C 979.00 208.73 979.80 218.42 979.37 228.07 C 978.83 231.86 974.42 235.78 970.57 233.49 C 969.41 231.55 969.42 229.23 969.37 227.05 C 969.37 220.01 969.46 212.98 969.45 205.94 C 969.50 202.71 968.71 199.07 965.98 197.05 C 963.56 196.03 960.91 195.82 958.37 195.32 C 958.49 193.82 958.62 192.32 958.76 190.83 C 962.07 189.95 966.13 190.17 968.75 187.70 C 969.84 183.29 969.83 177.93 974.31 175.35 Z" />
<path fill="#ffffff" stroke="#ffffff" stroke-width="0.09375" opacity="1.00" d=" M 448.08 190.65 C 451.58 189.97 456.22 189.94 457.37 194.15 C 458.25 202.38 457.14 210.70 457.81 218.95 C 458.01 220.78 458.44 222.75 459.81 224.09 C 464.48 225.29 469.37 224.68 474.10 224.26 C 475.99 220.71 478.80 217.30 478.62 213.05 C 478.77 205.48 478.03 197.83 479.67 190.36 C 481.39 190.33 483.14 190.18 484.85 190.45 C 487.19 191.73 489.00 194.17 488.66 196.95 C 488.63 206.99 488.66 217.04 488.66 227.08 C 488.83 229.66 487.28 231.85 485.61 233.65 C 484.06 233.90 482.47 234.58 480.91 234.16 C 479.20 232.93 478.47 230.83 477.42 229.10 C 473.26 229.74 469.77 232.13 466.01 233.81 C 462.75 234.68 458.79 235.11 455.88 233.04 C 453.70 231.60 451.38 230.31 449.41 228.59 C 447.00 224.16 447.52 218.88 447.44 214.02 C 447.66 206.23 446.92 198.39 448.08 190.65 Z" />
<path fill="#ffffff" stroke="#ffffff" stroke-width="0.09375" opacity="1.00" d=" M 502.50 190.36 C 505.21 189.18 508.26 189.63 509.57 192.54 C 512.28 197.61 515.21 202.65 517.04 208.14 C 518.39 210.90 520.00 213.54 520.92 216.50 C 525.66 217.88 528.11 212.53 529.46 208.91 C 529.90 205.74 532.84 203.74 533.39 200.64 C 533.91 196.76 536.91 193.98 538.62 190.61 C 539.24 190.33 540.48 189.77 541.11 189.49 C 543.28 190.57 545.59 192.35 545.73 194.99 C 543.86 200.36 540.01 204.76 538.17 210.15 C 535.82 213.12 535.28 217.00 533.05 220.04 C 531.75 222.18 531.34 224.75 529.85 226.79 C 527.78 229.42 527.78 233.05 525.52 235.57 C 522.99 240.84 520.70 247.39 514.88 249.82 C 513.27 248.30 511.69 246.74 510.16 245.15 C 512.60 241.20 514.25 236.85 516.50 232.81 C 517.28 231.49 517.81 229.91 517.36 228.38 C 512.32 220.48 508.72 211.79 504.35 203.52 C 502.03 199.62 500.02 194.69 502.50 190.36 Z" />
<path fill="#ffffff" stroke="#ffffff" stroke-width="0.09375" opacity="1.00" d=" M 683.19 191.27 C 686.06 188.64 690.38 189.64 693.88 190.05 C 697.35 191.42 700.66 193.25 703.81 195.23 C 706.25 199.18 709.98 202.99 709.51 208.01 C 709.44 210.22 709.68 213.39 707.13 214.35 C 697.95 215.41 688.48 213.18 679.49 215.78 C 678.93 219.24 681.55 221.77 683.59 224.18 C 687.35 224.03 689.91 227.18 693.44 227.74 C 694.85 225.98 696.50 224.06 699.04 224.52 C 702.66 224.83 707.01 222.15 709.74 225.61 C 709.29 226.93 708.85 228.26 708.43 229.60 C 704.47 230.79 699.77 230.71 696.94 234.20 C 693.60 234.32 690.23 234.49 686.91 234.09 C 684.63 233.96 683.21 231.97 681.36 230.94 C 679.97 230.42 678.47 230.38 677.05 230.16 C 672.42 225.26 667.75 219.17 668.54 212.02 C 667.76 206.35 671.24 201.54 674.08 197.00 C 676.11 193.60 680.40 193.66 683.19 191.27 M 688.32 196.52 C 684.17 198.24 680.60 201.45 678.57 205.47 C 677.96 206.56 678.79 207.71 679.69 208.32 C 682.75 210.23 686.57 209.49 690.00 209.70 C 693.15 209.42 696.76 210.42 699.58 208.64 C 700.36 206.00 699.77 203.25 699.46 200.59 C 696.03 198.73 692.50 195.60 688.32 196.52 Z" />
<path fill="#ffffff" stroke="#ffffff" stroke-width="0.09375" opacity="1.00" d=" M 756.35 194.29 C 760.21 193.61 763.86 192.36 767.13 190.15 C 771.79 189.40 777.03 189.18 781.17 191.84 C 784.38 193.75 788.28 195.20 790.18 198.63 C 790.78 201.72 790.50 204.90 790.81 208.02 C 791.85 216.58 790.07 225.15 790.73 233.73 C 790.58 233.98 790.28 234.48 790.13 234.73 C 788.19 234.12 786.01 233.98 784.40 232.65 C 782.26 231.11 780.21 228.68 777.29 229.19 C 773.44 229.95 771.18 234.52 766.97 234.19 C 762.90 234.34 759.53 231.71 756.45 229.41 C 752.52 226.65 753.09 221.15 753.70 216.99 C 754.60 212.53 760.15 212.98 763.38 211.12 C 768.28 208.30 773.99 210.11 779.26 209.15 C 781.98 207.49 780.26 203.47 780.46 200.80 C 778.10 199.34 776.02 197.13 773.25 196.55 C 770.43 197.13 767.85 198.51 765.02 199.03 C 761.46 199.69 757.82 199.57 754.23 199.62 C 754.58 197.79 753.78 194.71 756.35 194.29 M 778.49 214.41 C 778.51 214.88 778.53 215.81 778.55 216.28 C 774.20 216.21 769.85 216.35 765.51 216.38 C 764.74 218.25 764.53 220.27 764.22 222.26 C 765.43 224.64 768.17 226.92 770.79 227.34 C 773.38 225.00 776.97 224.63 779.83 222.87 C 780.90 220.26 781.58 216.00 778.49 214.41 Z" />
<path fill="#ffffff" stroke="#ffffff" stroke-width="0.09375" opacity="1.00" d=" M 920.18 190.07 C 923.82 189.22 927.89 189.37 931.50 190.44 C 935.60 193.16 941.13 193.71 944.00 198.09 C 945.53 200.99 946.92 203.98 948.28 206.97 C 948.77 210.28 948.78 213.69 948.28 217.00 C 945.46 222.57 942.97 230.13 935.81 231.05 C 931.42 234.56 925.39 235.10 920.10 233.87 C 917.43 231.89 914.35 230.80 911.22 229.86 C 908.75 228.30 907.03 225.81 905.37 223.47 C 903.04 220.15 903.46 215.90 903.38 212.06 C 903.53 208.16 902.84 203.77 905.40 200.45 C 907.40 197.75 909.36 194.51 912.83 193.58 C 915.45 192.79 917.78 191.36 920.18 190.07 M 923.70 196.82 C 920.26 199.13 915.56 200.36 913.88 204.54 C 913.34 209.26 913.48 214.08 913.77 218.83 C 915.17 223.44 920.40 224.39 923.70 227.19 C 924.90 228.15 926.37 227.03 927.48 226.45 C 929.59 225.08 932.12 224.63 934.32 223.44 C 935.88 220.60 937.16 217.58 938.23 214.52 C 939.56 209.92 936.83 205.71 934.99 201.71 C 934.11 199.20 931.02 199.27 929.05 198.09 C 927.34 197.55 925.51 195.76 923.70 196.82 Z" />
<path fill="#ffffff" stroke="#ffffff" stroke-width="0.09375" opacity="1.00" d=" M 1050.35 192.01 C 1054.07 189.44 1058.74 189.21 1063.10 189.74 C 1065.78 191.15 1068.03 193.47 1071.22 193.78 C 1076.48 197.89 1078.10 204.81 1077.61 211.20 C 1077.49 212.42 1076.96 213.44 1076.01 214.24 C 1067.23 215.55 1058.10 213.38 1049.42 215.35 C 1049.51 217.60 1049.14 219.97 1049.95 222.12 C 1052.51 225.17 1057.50 223.89 1059.66 227.59 C 1063.06 227.43 1065.57 224.58 1068.99 224.48 C 1070.69 224.25 1072.38 223.98 1074.08 223.66 C 1075.28 224.28 1076.81 224.50 1077.68 225.66 C 1077.99 227.95 1076.61 230.68 1074.00 230.46 C 1070.21 230.45 1067.76 234.10 1064.04 234.20 C 1060.68 234.24 1056.83 235.24 1053.92 233.12 C 1051.43 231.25 1048.28 230.83 1045.56 229.48 C 1043.07 227.21 1040.94 224.48 1039.37 221.50 C 1037.90 217.16 1038.50 212.45 1038.47 207.94 C 1038.44 200.75 1043.97 194.65 1050.35 192.01 M 1051.17 201.26 C 1049.01 202.98 1049.51 205.86 1049.56 208.27 C 1054.51 209.86 1059.84 209.48 1064.94 208.90 C 1066.94 208.78 1068.55 207.57 1069.98 206.25 C 1068.25 201.66 1064.05 199.26 1059.98 197.09 C 1057.13 198.68 1053.88 199.46 1051.17 201.26 Z" />
<path fill="#ffffff" stroke="#ffffff" stroke-width="0.09375" opacity="1.00" d=" M 1101.51 193.16 C 1106.42 190.39 1111.97 188.62 1117.66 189.81 C 1120.49 193.82 1126.45 193.75 1128.73 198.28 C 1131.04 203.00 1131.37 208.51 1130.52 213.65 C 1122.19 215.19 1113.69 213.66 1105.32 214.54 C 1102.57 215.00 1102.42 218.65 1103.27 220.74 C 1103.75 223.16 1106.37 223.82 1108.24 224.91 C 1111.33 226.36 1114.81 229.04 1118.30 226.96 C 1122.09 224.78 1126.44 223.77 1130.75 224.93 C 1130.62 226.41 1130.50 227.89 1130.41 229.37 C 1124.93 229.91 1120.63 234.32 1115.00 233.92 C 1110.45 234.49 1106.65 231.73 1102.63 230.16 C 1098.52 228.76 1095.74 225.02 1093.85 221.29 C 1092.89 216.27 1093.37 211.09 1093.39 206.00 C 1093.19 200.43 1098.19 196.92 1101.51 193.16 M 1109.50 198.49 C 1107.49 199.79 1104.34 200.12 1103.66 202.79 C 1103.27 204.90 1102.78 207.74 1104.92 209.10 C 1109.52 209.69 1114.22 209.38 1118.87 209.30 C 1121.21 209.29 1123.25 208.02 1124.62 206.18 C 1123.55 204.33 1122.70 202.32 1121.30 200.69 C 1119.13 199.36 1116.93 198.09 1114.83 196.67 C 1112.84 196.01 1111.22 197.81 1109.50 198.49 Z" />
</g>
<g id="#70d7efff">
<path fill="#70d7ef" stroke="#70d7ef" stroke-width="0.09375" opacity="1.00" d=" M 378.78 168.71 C 389.81 167.14 400.97 168.63 412.06 168.23 C 417.75 167.56 422.57 171.10 427.19 173.84 C 430.40 178.63 433.87 184.13 432.30 190.16 C 430.39 194.09 427.98 197.80 425.09 201.10 C 427.55 203.81 430.75 206.07 432.40 209.38 C 433.12 214.70 433.15 220.23 432.26 225.53 C 429.67 228.29 427.80 233.02 423.33 232.66 C 427.71 228.48 432.67 223.60 431.96 216.96 C 432.65 210.09 427.11 204.84 421.41 202.14 C 425.40 197.48 430.75 192.70 430.45 186.00 C 429.75 181.30 427.77 176.20 423.43 173.75 C 419.29 171.44 414.89 168.93 409.97 169.37 C 400.96 169.63 391.94 169.14 382.94 169.59 C 380.38 169.51 378.30 171.34 378.33 173.95 C 378.49 191.65 378.38 209.35 378.38 227.05 C 378.46 229.57 379.13 232.02 379.51 234.51 L 379.19 236.28 C 377.60 234.70 377.45 232.23 375.70 230.79 C 375.00 226.56 374.57 222.27 375.30 218.01 C 375.36 211.33 375.76 204.59 374.76 197.96 C 374.22 193.63 375.69 189.37 375.41 185.04 C 375.46 179.52 374.20 172.89 378.78 168.71 Z" />
</g>
<g id="#6dd6efff">
<path fill="#6dd6ef" stroke="#6dd6ef" stroke-width="0.09375" opacity="1.00" d=" M 589.42 168.60 C 593.08 168.49 597.34 167.41 600.65 169.34 C 605.11 176.03 608.22 183.52 612.72 190.20 C 614.65 192.61 614.52 196.05 616.91 198.20 C 618.65 199.86 617.92 204.33 621.24 203.72 C 623.05 202.37 623.64 200.10 624.67 198.21 C 628.37 191.94 631.31 185.25 635.18 179.07 C 636.39 175.14 638.68 171.70 641.54 168.77 C 644.97 167.92 648.55 168.30 652.04 168.62 C 653.42 171.09 656.49 172.91 656.39 176.00 C 656.43 193.32 656.35 210.65 656.43 227.97 C 656.94 232.45 652.48 236.97 648.01 236.49 C 645.54 236.55 643.17 235.79 640.82 235.17 C 640.19 233.51 639.50 231.83 639.50 230.03 C 639.31 223.34 639.51 216.66 639.46 209.98 C 639.43 208.31 639.01 206.73 638.21 205.25 C 634.91 210.79 631.97 216.56 629.11 222.34 C 626.59 225.68 622.83 229.04 618.31 227.27 C 614.98 224.66 612.19 221.38 609.93 217.81 C 608.47 213.46 605.67 209.62 602.72 206.21 C 602.11 214.64 603.09 223.14 602.27 231.54 C 600.42 236.92 593.71 237.53 589.15 235.56 C 586.62 234.01 585.28 230.89 585.53 227.97 C 585.61 210.64 585.50 193.30 585.59 175.97 C 585.35 172.95 587.84 170.86 589.42 168.60 M 644.56 170.05 C 641.68 173.47 638.60 176.91 637.25 181.28 C 636.62 183.34 635.13 184.93 633.76 186.53 C 633.30 190.68 630.09 193.70 628.49 197.42 C 626.19 200.51 625.46 204.41 623.23 207.54 C 621.40 207.52 619.57 207.51 617.76 207.49 C 617.64 204.24 615.79 201.67 613.91 199.20 C 611.77 194.22 608.87 189.61 606.10 184.98 C 605.48 181.13 601.09 179.35 601.28 175.25 C 599.83 173.68 598.39 172.10 597.06 170.43 C 595.30 170.40 593.54 170.38 591.79 170.36 C 590.43 172.34 589.04 174.46 589.33 176.99 C 589.32 194.33 589.29 211.67 589.34 229.01 C 589.17 231.18 590.61 232.90 591.66 234.65 C 593.72 234.58 595.84 234.53 597.79 233.71 C 597.75 233.02 597.65 231.63 597.61 230.94 L 598.17 232.30 C 599.01 230.97 600.51 229.76 600.37 228.02 C 600.49 219.50 600.22 210.98 600.53 202.47 C 601.83 202.46 603.15 202.47 604.48 202.47 C 606.40 207.06 609.49 211.02 611.30 215.67 C 613.53 218.19 614.18 222.16 617.56 223.51 C 620.94 226.05 625.48 223.54 627.34 220.33 C 630.70 213.67 634.39 207.19 637.83 200.56 C 638.34 200.50 639.36 200.38 639.87 200.33 C 642.00 210.01 640.77 220.01 641.21 229.83 L 642.39 229.88 C 642.59 231.69 644.03 233.06 644.86 234.61 C 647.08 235.05 649.33 235.06 651.57 234.68 C 652.59 232.23 653.70 229.72 653.54 227.00 C 653.49 210.66 653.48 194.32 653.54 177.97 C 653.72 174.91 652.55 171.64 650.05 169.78 C 648.22 169.14 646.32 169.42 644.56 170.05 Z" />
<path fill="#6dd6ef" stroke="#6dd6ef" stroke-width="0.09375" opacity="1.00" d=" M 969.57 174.33 C 976.23 166.89 987.15 167.01 996.21 168.76 C 997.71 172.49 997.49 176.46 996.06 180.16 C 992.96 181.91 989.33 181.03 986.02 181.78 C 984.15 183.06 983.48 185.29 982.75 187.31 C 988.85 187.59 995.02 188.17 1001.10 187.23 C 1003.37 185.39 1002.10 181.99 1002.86 179.46 C 1004.60 174.65 1009.64 172.53 1012.67 168.75 C 1018.84 168.26 1025.08 167.91 1031.27 168.54 L 1030.13 169.28 C 1023.58 169.25 1016.25 168.51 1010.77 172.87 C 1005.72 176.20 1003.42 182.08 1002.90 187.90 C 998.88 188.93 994.77 189.77 990.60 189.51 C 987.52 188.85 984.38 188.58 981.25 188.37 C 981.26 186.14 980.64 183.35 982.71 181.81 C 985.51 178.71 989.88 178.80 993.61 177.79 C 996.09 177.09 996.19 174.03 995.39 172.04 C 994.72 169.24 991.19 169.65 988.98 169.29 C 982.99 168.51 977.41 171.40 972.55 174.54 C 968.86 177.23 967.84 181.88 966.27 185.89 C 965.44 189.64 960.82 188.76 957.97 189.45 C 957.55 191.82 956.08 194.85 958.15 196.86 C 961.00 198.02 965.55 197.29 966.18 201.38 C 967.24 210.55 965.85 219.87 966.75 229.06 C 967.59 231.92 969.42 235.64 973.01 235.19 C 976.81 235.74 980.45 232.78 980.63 228.94 C 981.22 220.31 980.42 211.65 980.91 203.03 C 980.99 201.21 981.77 198.70 983.95 198.59 C 989.30 198.07 994.73 198.03 1000.09 198.49 C 1002.30 198.52 1003.33 201.02 1003.41 202.92 C 1003.96 212.05 1002.93 221.24 1003.78 230.34 C 1004.50 235.32 1010.32 235.63 1014.23 234.79 C 1015.62 232.71 1017.43 230.66 1017.61 228.04 C 1018.18 220.36 1017.47 212.64 1017.82 204.95 C 1017.97 202.83 1018.21 200.39 1019.96 198.94 C 1022.93 197.98 1026.32 198.68 1029.14 197.19 C 1031.93 195.78 1029.80 192.15 1029.78 189.77 C 1032.87 190.81 1031.71 194.74 1031.51 197.22 C 1029.80 201.65 1024.36 200.41 1020.64 200.64 C 1018.06 208.94 1021.25 217.57 1019.90 225.99 C 1019.95 230.05 1017.99 234.65 1014.03 236.19 C 1010.10 236.67 1003.71 237.28 1002.65 232.19 C 1001.30 222.02 1003.28 211.61 1001.60 201.47 C 997.21 200.06 992.57 200.54 988.04 200.54 C 986.12 200.47 984.29 201.02 982.54 201.72 C 982.49 210.17 982.62 218.61 982.51 227.06 C 982.60 229.96 981.55 232.69 980.41 235.31 C 975.93 236.50 969.48 238.19 966.37 233.64 C 965.50 232.62 964.48 231.53 964.58 230.10 C 964.37 221.73 964.57 213.35 964.55 204.97 C 964.65 203.39 964.01 201.95 963.36 200.56 C 961.53 200.54 959.73 200.48 957.93 200.42 C 956.68 198.28 955.22 196.27 953.81 194.24 C 955.03 192.33 955.89 190.20 957.16 188.30 C 959.36 187.17 962.03 187.70 964.44 187.38 C 964.52 185.46 964.63 183.54 964.77 181.63 C 966.84 179.52 968.04 176.81 969.57 174.33 Z" />
</g>
<g id="#5fd2edff">
<path fill="#5fd2ed" stroke="#5fd2ed" stroke-width="0.09375" opacity="1.00" d=" M 855.42 168.86 C 864.16 167.35 873.21 167.11 881.95 168.72 C 884.89 170.26 887.79 171.90 890.91 173.10 C 893.63 175.60 896.91 179.14 895.13 183.13 C 893.44 185.56 891.64 189.58 887.99 188.50 C 884.02 187.30 880.61 184.85 877.03 182.85 C 872.36 181.00 867.21 181.65 862.41 182.50 C 861.01 183.80 859.88 186.43 857.55 185.44 C 860.15 180.97 865.56 180.35 870.23 179.94 C 874.18 180.38 878.18 181.32 881.63 183.39 C 884.09 184.77 886.78 186.20 889.69 186.02 C 892.66 184.66 894.50 180.38 892.27 177.61 C 889.28 172.96 883.37 172.13 878.62 170.15 C 870.96 168.33 862.54 168.52 855.31 171.86 C 847.93 174.49 842.15 180.61 838.99 187.66 C 836.50 194.39 836.56 201.73 836.68 208.81 C 833.29 207.96 833.60 203.74 833.56 201.01 C 833.44 198.04 836.06 195.88 836.29 192.99 C 836.69 190.51 836.42 187.79 837.79 185.57 C 840.83 180.31 844.51 175.07 849.98 172.13 C 851.83 171.12 853.47 169.71 855.42 168.86 Z" />
</g>
<g id="#a6e6f5ff">
<path fill="#a6e6f5" stroke="#a6e6f5" stroke-width="0.09375" opacity="1.00" d=" M 1010.77 172.87 C 1016.25 168.51 1023.58 169.25 1030.13 169.28 L 1031.64 169.27 C 1033.13 171.32 1033.77 173.77 1033.67 176.29 C 1032.10 177.63 1030.56 179.01 1029.05 180.41 C 1025.91 180.64 1021.72 179.77 1019.69 182.84 C 1019.42 184.37 1019.37 185.93 1019.30 187.48 C 1022.61 188.47 1026.09 188.50 1029.52 188.52 C 1029.59 188.83 1029.72 189.46 1029.78 189.77 C 1029.80 192.15 1031.93 195.78 1029.14 197.19 C 1026.32 198.68 1022.93 197.98 1019.96 198.94 C 1018.21 200.39 1017.97 202.83 1017.82 204.95 C 1017.47 212.64 1018.18 220.36 1017.61 228.04 C 1017.43 230.66 1015.62 232.71 1014.23 234.79 L 1014.45 233.48 C 1016.33 223.38 1015.04 213.08 1015.48 202.89 C 1015.38 200.39 1017.04 198.26 1018.91 196.79 C 1022.59 196.09 1026.45 196.51 1030.07 195.31 C 1028.70 193.33 1027.70 190.29 1024.89 190.09 C 1021.64 189.61 1018.36 189.30 1015.19 188.46 C 1015.80 181.59 1021.93 175.43 1029.09 176.27 C 1029.51 175.72 1030.34 174.63 1030.75 174.08 C 1030.17 172.90 1029.60 171.72 1029.05 170.53 C 1022.44 169.56 1016.07 172.16 1010.56 175.56 C 1006.86 179.15 1004.56 184.00 1004.09 189.14 C 1001.87 189.54 999.67 189.99 997.47 190.40 C 995.11 190.87 992.81 190.26 990.60 189.51 C 994.77 189.77 998.88 188.93 1002.90 187.90 C 1003.42 182.08 1005.72 176.20 1010.77 172.87 Z" />
<path fill="#a6e6f5" stroke="#a6e6f5" stroke-width="0.09375" opacity="1.00" d=" M 855.31 171.86 C 862.54 168.52 870.96 168.33 878.62 170.15 C 883.37 172.13 889.28 172.96 892.27 177.61 C 894.50 180.38 892.66 184.66 889.69 186.02 C 886.78 186.20 884.09 184.77 881.63 183.39 C 878.18 181.32 874.18 180.38 870.23 179.94 C 865.56 180.35 860.15 180.97 857.55 185.44 C 855.88 187.69 853.66 189.97 853.60 192.94 C 853.34 198.85 853.29 204.79 853.57 210.70 C 853.99 215.76 858.12 219.24 861.62 222.43 C 864.46 222.72 867.26 223.44 870.13 223.57 C 872.88 223.29 875.57 222.55 878.35 222.37 C 881.87 218.99 886.67 217.84 891.44 218.41 C 892.13 219.16 892.83 219.92 893.54 220.67 C 893.56 222.59 893.58 224.51 893.62 226.43 C 891.70 228.61 889.96 231.33 886.91 231.94 C 883.65 232.76 881.24 235.81 877.69 235.56 C 870.42 235.49 862.92 236.57 855.88 234.28 C 853.33 232.70 850.51 231.60 848.09 229.85 C 841.70 224.73 836.67 217.23 836.68 208.81 C 836.56 201.73 836.50 194.39 838.99 187.66 C 842.15 180.61 847.93 174.49 855.31 171.86 M 859.52 173.25 C 854.43 173.22 850.09 176.27 846.46 179.53 C 842.70 182.99 841.85 188.23 839.40 192.52 C 837.79 197.13 838.68 202.18 838.51 206.98 C 838.14 211.23 840.93 214.63 842.33 218.41 C 844.77 224.96 851.00 230.26 858.00 231.02 C 860.49 231.78 862.14 234.59 865.00 234.26 C 869.22 234.15 873.96 235.19 877.65 232.55 C 880.12 230.88 883.12 230.48 886.04 230.29 C 887.63 228.76 889.20 227.19 890.77 225.62 C 890.42 223.92 891.54 220.99 889.15 220.51 C 885.81 219.71 883.72 222.79 881.05 224.09 C 878.75 224.72 876.32 224.54 873.98 224.67 C 873.15 225.66 872.37 226.68 871.58 227.69 C 869.87 227.69 868.30 227.15 866.99 226.08 C 864.91 224.41 862.12 224.79 859.70 224.11 C 857.11 222.57 855.10 220.25 852.84 218.28 C 852.38 214.65 850.92 211.30 849.77 207.87 C 849.27 204.32 849.33 200.68 849.69 197.12 C 850.49 194.05 851.84 191.15 852.44 188.02 C 852.82 185.37 855.34 183.91 857.09 182.15 C 859.41 179.70 863.00 179.77 866.11 179.31 C 867.49 177.65 869.15 176.22 871.48 176.41 C 872.15 177.43 872.78 178.47 873.48 179.48 C 877.17 180.06 881.54 179.59 884.31 182.61 C 885.94 184.41 888.56 183.54 890.71 183.71 C 890.68 181.98 890.67 180.24 890.67 178.51 C 889.01 177.06 887.53 175.28 885.49 174.39 C 882.87 173.60 880.01 173.58 877.63 172.10 C 873.21 169.25 867.73 170.92 862.81 170.47 C 861.71 171.40 860.61 172.33 859.52 173.25 Z" />
</g>
<g id="#b6ebf7ff">
<path fill="#b6ebf7" stroke="#b6ebf7" stroke-width="0.09375" opacity="1.00" d=" M 378.33 173.95 C 378.30 171.34 380.38 169.51 382.94 169.59 C 391.94 169.14 400.96 169.63 409.97 169.37 C 414.89 168.93 419.29 171.44 423.43 173.75 C 427.77 176.20 429.75 181.30 430.45 186.00 C 430.75 192.70 425.40 197.48 421.41 202.14 C 427.11 204.84 432.65 210.09 431.96 216.96 C 432.67 223.60 427.71 228.48 423.33 232.66 C 420.75 234.50 417.53 234.95 414.44 234.75 C 416.60 231.33 420.61 230.70 423.97 229.07 C 427.23 225.83 430.08 221.61 430.70 216.98 C 430.02 210.45 424.97 205.34 419.01 203.05 C 420.52 199.12 423.85 196.52 426.53 193.46 C 428.13 189.88 427.68 185.75 427.40 181.94 C 427.32 178.15 424.02 175.61 420.77 174.39 C 417.18 173.11 414.04 170.21 410.02 170.56 C 402.00 170.68 393.99 170.55 385.98 170.61 C 383.01 170.44 380.68 172.46 378.33 173.95 Z" />
</g>
<g id="#ade8f6ff">
<path fill="#ade8f6" stroke="#ade8f6" stroke-width="0.09375" opacity="1.00" d=" M 644.56 170.05 C 646.32 169.42 648.22 169.14 650.05 169.78 C 652.55 171.64 653.72 174.91 653.54 177.97 C 653.48 194.32 653.49 210.66 653.54 227.00 C 653.70 229.72 652.59 232.23 651.57 234.68 C 649.33 235.06 647.08 235.05 644.86 234.61 C 646.68 234.13 648.56 233.77 650.31 233.04 C 651.71 230.61 651.49 227.68 651.58 224.97 C 651.38 208.64 651.69 192.29 651.45 175.96 C 651.79 171.89 647.68 170.77 644.56 170.05 Z" />
</g>
<g id="#afe9f6ff">
<path fill="#afe9f6" stroke="#afe9f6" stroke-width="0.09375" opacity="1.00" d=" M 972.55 174.54 C 977.41 171.40 982.99 168.51 988.98 169.29 C 991.19 169.65 994.72 169.24 995.39 172.04 C 996.19 174.03 996.09 177.09 993.61 177.79 C 989.88 178.80 985.51 178.71 982.71 181.81 C 980.64 183.35 981.26 186.14 981.25 188.37 C 984.38 188.58 987.52 188.85 990.60 189.51 C 992.81 190.26 995.11 190.87 997.47 190.40 C 996.22 191.16 995.09 193.36 993.41 192.42 C 990.75 191.08 988.07 189.61 984.99 189.75 C 982.95 189.51 979.25 189.97 979.46 186.89 C 978.43 182.49 982.22 179.47 985.49 177.40 C 988.30 175.69 992.12 177.36 994.75 175.16 C 994.65 172.27 991.67 170.59 989.06 170.55 C 983.56 169.43 979.08 173.39 974.31 175.35 C 969.83 177.93 969.84 183.29 968.75 187.70 C 966.13 190.17 962.07 189.95 958.76 190.83 C 958.62 192.32 958.49 193.82 958.37 195.32 C 960.91 195.82 963.56 196.03 965.98 197.05 C 968.71 199.07 969.50 202.71 969.45 205.94 C 969.46 212.98 969.37 220.01 969.37 227.05 C 969.42 229.23 969.41 231.55 970.57 233.49 C 974.42 235.78 978.83 231.86 979.37 228.07 C 979.80 218.42 979.00 208.73 979.69 199.10 C 979.71 196.89 981.96 195.53 984.00 195.68 C 990.43 195.50 996.87 195.66 1003.30 195.75 C 1005.40 201.26 1004.54 207.23 1004.68 212.98 C 1004.77 218.02 1004.45 223.06 1004.73 228.09 C 1004.74 230.48 1006.72 232.25 1008.56 233.49 C 1010.46 234.03 1012.49 233.52 1014.45 233.48 L 1014.23 234.79 C 1010.32 235.63 1004.50 235.32 1003.78 230.34 C 1002.93 221.24 1003.96 212.05 1003.41 202.92 C 1003.33 201.02 1002.30 198.52 1000.09 198.49 C 994.73 198.03 989.30 198.07 983.95 198.59 C 981.77 198.70 980.99 201.21 980.91 203.03 C 980.42 211.65 981.22 220.31 980.63 228.94 C 980.45 232.78 976.81 235.74 973.01 235.19 C 969.42 235.64 967.59 231.92 966.75 229.06 C 965.85 219.87 967.24 210.55 966.18 201.38 C 965.55 197.29 961.00 198.02 958.15 196.86 C 956.08 194.85 957.55 191.82 957.97 189.45 C 960.82 188.76 965.44 189.64 966.27 185.89 C 967.84 181.88 968.86 177.23 972.55 174.54 Z" />
</g>
<g id="#767676ff">
<path fill="#767676" stroke="#767676" stroke-width="0.09375" opacity="1.00" d=" M 285.43 175.44 C 286.72 174.14 287.96 172.31 290.04 172.49 C 295.82 172.30 301.61 172.39 307.39 172.59 C 309.11 174.23 310.77 176.09 313.11 176.85 C 313.39 178.75 314.78 179.93 316.32 180.90 C 317.04 182.72 317.04 185.42 319.38 185.91 C 319.39 186.57 319.39 187.89 319.39 188.55 L 320.46 188.55 C 320.50 193.19 320.62 197.84 320.41 202.48 C 319.09 203.86 317.68 205.26 317.26 207.19 C 316.15 210.44 313.29 212.54 310.90 214.81 C 309.20 216.51 306.68 216.52 304.47 216.78 C 304.44 217.17 304.38 217.93 304.35 218.31 C 299.49 218.29 294.81 220.11 289.92 219.43 C 288.77 217.74 287.66 215.77 285.56 215.15 C 285.37 201.91 285.63 188.67 285.43 175.44 M 288.63 180.97 C 288.70 191.01 288.66 201.05 288.65 211.09 C 288.56 212.67 289.27 214.10 289.81 215.55 C 295.58 215.68 301.46 215.93 307.09 214.41 C 309.22 212.36 311.79 210.67 313.17 207.96 C 313.64 207.77 314.59 207.40 315.07 207.21 C 316.67 203.63 318.92 200.07 318.68 196.00 C 318.57 192.63 317.95 189.04 315.62 186.46 C 315.51 185.34 315.36 184.23 315.22 183.12 C 311.91 179.71 308.54 176.23 304.03 174.43 C 299.24 173.88 294.41 174.29 289.61 174.34 C 289.03 176.50 288.58 178.72 288.63 180.97 Z" />
</g>
<g id="#e5e5e5ff">
<path fill="#e5e5e5" stroke="#e5e5e5" stroke-width="0.09375" opacity="1.00" d=" M 329.57 187.98 C 329.10 181.60 323.92 176.94 322.57 170.86 C 326.10 173.49 327.70 177.66 329.55 181.49 C 331.14 184.76 331.11 188.50 331.38 192.05 C 331.56 196.93 331.73 201.95 330.35 206.69 C 327.41 214.60 321.28 220.82 314.61 225.73 C 310.65 227.48 306.10 228.14 302.83 231.24 C 298.60 231.06 294.36 231.07 290.15 231.41 C 289.79 231.42 289.06 231.43 288.70 231.44 C 288.23 231.84 287.28 232.65 286.81 233.05 C 285.82 236.39 285.56 239.87 285.17 243.31 C 284.78 247.53 281.49 250.58 279.99 254.38 C 278.92 254.69 277.94 255.23 276.92 255.66 C 272.32 256.46 267.71 257.42 263.01 257.10 C 244.35 257.05 225.68 256.87 207.02 257.23 C 206.72 255.99 206.44 254.75 206.15 253.52 C 224.76 253.25 243.38 253.46 261.99 253.42 C 266.97 253.32 272.19 253.92 276.95 252.15 C 278.97 250.71 280.41 248.60 281.93 246.66 C 285.43 242.27 281.42 235.39 285.47 231.33 C 290.49 228.21 296.91 231.00 302.25 228.96 C 304.69 227.55 307.15 226.12 309.98 225.66 C 313.66 225.11 316.38 222.41 319.04 220.04 C 323.88 215.71 327.63 210.03 329.36 203.75 C 330.04 198.53 329.79 193.22 329.57 187.98 Z" />
</g>
<g id="#131313ff">
<path fill="#131313" stroke="#131313" stroke-width="0.09375" opacity="1.00" d=" M 288.63 180.97 C 288.58 178.72 289.03 176.50 289.61 174.34 C 294.41 174.29 299.24 173.88 304.03 174.43 C 308.54 176.23 311.91 179.71 315.22 183.12 C 315.36 184.23 315.51 185.34 315.62 186.46 C 316.39 193.38 316.67 200.38 315.07 207.21 C 314.59 207.40 313.64 207.77 313.17 207.96 C 311.79 210.67 309.22 212.36 307.09 214.41 C 301.46 215.93 295.58 215.68 289.81 215.55 C 289.27 214.10 288.56 212.67 288.65 211.09 C 288.66 201.05 288.70 191.01 288.63 180.97 M 294.04 177.90 C 292.15 179.73 292.43 182.58 292.33 184.99 C 292.45 193.31 292.21 201.63 292.43 209.95 C 292.21 211.45 293.50 212.75 295.01 212.49 C 297.88 212.43 300.96 212.82 303.67 211.69 C 309.40 208.02 314.62 202.24 314.39 195.00 C 313.85 192.18 313.17 189.36 312.21 186.65 C 310.86 184.73 309.27 183.00 307.93 181.08 C 303.62 178.99 298.98 176.07 294.04 177.90 Z" />
</g>
<g id="#ffb8bfff">
<path fill="#ffb8bf" stroke="#ffb8bf" stroke-width="0.09375" opacity="1.00" d=" M 200.69 180.76 C 204.13 180.09 207.44 178.98 210.17 176.72 C 213.68 176.27 217.31 176.21 220.80 176.84 C 224.17 179.16 227.82 181.63 232.06 181.73 C 235.82 181.00 239.03 178.86 242.16 176.78 C 245.86 176.05 249.68 176.47 253.43 176.66 C 255.30 179.54 258.63 180.34 261.79 180.99 C 263.79 184.93 268.00 188.02 267.31 192.94 C 266.98 198.71 269.03 207.36 262.33 210.21 L 260.88 210.65 C 261.68 208.68 262.57 206.74 263.59 204.87 C 269.50 195.37 262.40 180.84 250.99 180.37 C 245.11 180.25 237.51 179.79 233.89 185.44 C 230.44 186.18 227.91 184.10 225.45 182.07 C 218.37 179.61 210.22 179.70 203.34 182.78 C 200.09 185.61 196.95 189.48 197.35 194.07 C 197.45 198.13 196.71 202.58 198.90 206.25 C 201.45 211.00 205.52 214.61 209.25 218.40 C 215.07 224.16 220.85 229.95 226.79 235.59 L 227.39 237.79 C 222.13 236.43 219.08 231.27 215.11 227.90 C 208.01 221.99 201.80 215.09 196.26 207.70 C 195.35 206.72 195.62 205.26 195.47 204.05 C 195.36 198.20 195.30 192.35 195.68 186.51 C 197.55 184.77 199.23 182.85 200.69 180.76 Z" />
</g>
<g id="#b2e9f7ff">
<path fill="#b2e9f7" stroke="#b2e9f7" stroke-width="0.09375" opacity="1.00" d=" M 389.72 178.69 C 391.08 177.84 392.31 176.49 394.04 176.53 C 398.42 176.30 402.82 176.40 407.20 176.67 C 409.42 179.51 412.98 180.22 416.33 180.83 C 418.10 183.91 417.74 187.58 417.62 190.99 C 417.56 194.78 413.80 198.13 409.99 197.63 C 403.79 197.62 397.54 197.99 391.36 197.33 C 389.67 197.27 389.08 195.48 388.92 194.08 C 388.26 188.95 388.61 183.73 389.72 178.69 M 391.34 182.68 C 391.57 186.54 391.26 190.41 391.53 194.26 C 393.35 197.04 397.14 196.40 400.00 196.51 C 403.62 196.32 407.36 196.91 410.89 195.96 C 413.94 194.08 416.92 190.82 416.28 186.95 C 415.59 184.65 414.22 182.06 411.75 181.33 C 406.64 179.73 401.31 177.96 395.89 178.77 C 393.96 179.49 392.71 181.24 391.34 182.68 Z" />
</g>
<g id="#0d6479ff">
<path fill="#0d6479" stroke="#0d6479" stroke-width="0.09375" opacity="1.00" d=" M 294.04 177.90 C 298.98 176.07 303.62 178.99 307.93 181.08 C 309.27 183.00 310.86 184.73 312.21 186.65 C 313.17 189.36 313.85 192.18 314.39 195.00 C 314.62 202.24 309.40 208.02 303.67 211.69 C 300.96 212.82 297.88 212.43 295.01 212.49 C 293.50 212.75 292.21 211.45 292.43 209.95 C 292.21 201.63 292.45 193.31 292.33 184.99 C 292.43 182.58 292.15 179.73 294.04 177.90 M 294.33 181.33 C 293.91 191.13 293.19 201.02 294.33 210.77 C 301.31 211.13 307.72 206.90 311.25 201.08 C 311.85 197.36 311.52 193.57 311.41 189.83 C 309.27 187.52 307.95 184.56 305.76 182.32 C 302.22 180.67 298.11 181.54 294.33 181.33 Z" />
</g>
<g id="#5bd1ecff">
<path fill="#5bd1ec" stroke="#5bd1ec" stroke-width="0.09375" opacity="1.00" d=" M 391.34 182.68 C 392.71 181.24 393.96 179.49 395.89 178.77 C 401.31 177.96 406.64 179.73 411.75 181.33 C 414.22 182.06 415.59 184.65 416.28 186.95 C 416.92 190.82 413.94 194.08 410.89 195.96 C 407.36 196.91 403.62 196.32 400.00 196.51 C 397.14 196.40 393.35 197.04 391.53 194.26 C 391.26 190.41 391.57 186.54 391.34 182.68 M 394.90 181.72 C 393.65 185.77 394.36 190.31 394.47 194.53 C 398.28 195.96 402.92 195.02 407.04 195.06 C 411.10 195.16 412.81 190.85 414.70 188.01 C 413.62 186.17 412.54 184.34 411.47 182.51 C 406.04 181.33 400.41 181.19 394.90 181.72 Z" />
</g>
<g id="#ff5b6dff">
<path fill="#ff5b6d" stroke="#ff5b6d" stroke-width="0.09375" opacity="1.00" d=" M 203.34 182.78 C 210.22 179.70 218.37 179.61 225.45 182.07 C 227.91 184.10 230.44 186.18 233.89 185.44 C 237.51 179.79 245.11 180.25 250.99 180.37 C 262.40 180.84 269.50 195.37 263.59 204.87 C 264.05 201.49 263.98 198.06 263.85 194.66 C 260.30 196.12 256.90 197.93 253.33 199.35 C 239.03 204.18 224.54 208.41 210.26 213.30 C 209.93 215.00 209.58 216.70 209.25 218.40 C 205.52 214.61 201.45 211.00 198.90 206.25 C 196.71 202.58 197.45 198.13 197.35 194.07 C 196.95 189.48 200.09 185.61 203.34 182.78 Z" />
</g>
<g id="#474a4bff">
<path fill="#474a4b" stroke="#474a4b" stroke-width="0.09375" opacity="1.00" d=" M 332.48 185.45 C 337.31 189.92 335.02 196.88 335.41 202.63 C 334.43 203.47 333.44 204.30 332.47 205.14 C 334.00 198.62 333.04 192.02 332.48 185.45 Z" />
</g>
<g id="#3f4446ff">
<path fill="#3f4446" stroke="#3f4446" stroke-width="0.09375" opacity="1.00" d=" M 315.62 186.46 C 317.95 189.04 318.57 192.63 318.68 196.00 C 318.92 200.07 316.67 203.63 315.07 207.21 C 316.67 200.38 316.39 193.38 315.62 186.46 Z" />
</g>
<g id="#60d2edff">
<path fill="#60d2ed" stroke="#60d2ed" stroke-width="0.09375" opacity="1.00" d=" M 757.53 188.76 C 762.29 187.82 767.13 187.29 771.99 187.47 C 776.29 187.62 780.75 187.04 784.92 188.38 C 790.54 190.98 793.43 196.74 795.41 202.28 C 796.44 210.47 796.47 218.75 796.26 226.99 C 796.28 230.83 793.48 233.72 790.96 236.26 C 786.33 236.28 781.77 235.15 778.08 232.26 C 773.17 236.50 766.38 236.58 760.34 235.43 C 757.60 234.79 755.82 232.41 754.12 230.37 C 757.50 232.41 760.77 235.29 764.93 235.33 C 767.86 235.35 771.20 235.67 773.67 233.76 C 775.12 232.76 776.49 231.63 778.03 230.74 C 780.63 231.76 782.64 233.80 785.09 235.10 C 786.76 235.38 788.45 234.88 790.13 234.73 C 790.28 234.48 790.58 233.98 790.73 233.73 C 792.44 231.48 794.03 228.96 793.67 225.98 C 793.38 216.96 794.65 207.64 791.82 198.90 C 790.65 194.74 786.97 192.02 783.33 190.10 C 779.50 188.32 775.15 188.70 771.05 188.61 C 764.75 188.36 759.19 191.68 753.39 193.57 C 752.83 196.21 751.36 200.35 754.76 201.62 C 761.77 202.46 768.58 198.53 775.54 199.92 C 778.97 200.51 780.67 204.46 778.80 207.35 C 778.44 206.37 777.72 204.40 777.36 203.42 C 773.34 200.35 767.57 200.97 763.31 203.23 C 760.29 204.98 756.64 204.83 753.30 204.43 C 750.35 201.27 750.18 196.75 751.90 192.94 C 753.88 191.69 755.75 190.28 757.53 188.76 Z" />
</g>
<g id="#b7ebf7ff">
<path fill="#b7ebf7" stroke="#b7ebf7" stroke-width="0.09375" opacity="1.00" d=" M 448.36 188.40 C 451.07 188.42 453.77 188.45 456.48 188.49 C 457.44 189.48 458.39 190.48 459.36 191.48 C 461.19 201.00 460.03 210.72 460.45 220.35 C 461.17 221.09 461.89 221.84 462.61 222.58 C 465.65 222.70 468.69 222.65 471.74 222.50 C 473.05 220.52 474.72 218.51 474.52 215.98 C 474.66 208.90 474.56 201.82 474.54 194.74 C 475.96 192.66 477.37 190.56 478.76 188.46 C 481.64 188.40 484.52 188.42 487.40 188.54 C 488.39 189.63 489.39 190.71 490.40 191.78 C 490.71 204.20 490.47 216.63 490.55 229.06 C 490.95 231.74 488.91 233.64 487.32 235.46 C 484.41 235.53 481.51 235.57 478.62 235.74 C 481.01 235.28 483.45 234.82 485.61 233.65 C 487.28 231.85 488.83 229.66 488.66 227.08 C 488.66 217.04 488.63 206.99 488.66 196.95 C 489.00 194.17 487.19 191.73 484.85 190.45 C 483.14 190.18 481.39 190.33 479.67 190.36 C 478.03 197.83 478.77 205.48 478.62 213.05 C 478.80 217.30 475.99 220.71 474.10 224.26 C 469.37 224.68 464.48 225.29 459.81 224.09 C 458.44 222.75 458.01 220.78 457.81 218.95 C 457.14 210.70 458.25 202.38 457.37 194.15 C 456.22 189.94 451.58 189.97 448.08 190.65 C 448.14 190.23 448.24 189.37 448.30 188.95 L 448.36 188.40 Z" />
</g>
<g id="#a7e6f5ff">
<path fill="#a7e6f5" stroke="#a7e6f5" stroke-width="0.09375" opacity="1.00" d=" M 501.65 188.57 C 504.21 188.11 506.83 188.38 509.42 188.40 C 510.74 189.84 512.28 191.18 513.02 193.05 C 514.36 196.61 517.16 199.42 517.94 203.22 C 519.90 206.35 521.78 209.59 521.73 213.43 C 522.22 213.49 523.19 213.62 523.68 213.68 C 524.91 210.39 527.43 207.77 528.44 204.37 C 529.28 201.77 531.44 199.80 531.94 197.06 C 532.44 193.64 534.92 191.13 536.91 188.49 C 540.53 188.68 545.95 186.90 547.73 191.25 C 550.67 196.80 545.40 201.51 543.23 206.21 C 537.98 216.64 532.76 227.08 527.55 237.50 C 525.45 240.05 525.29 243.59 523.07 246.05 C 521.67 247.71 520.75 249.88 518.91 251.09 C 515.85 251.83 511.84 251.97 509.73 249.19 C 507.99 247.19 508.38 244.30 508.66 241.88 C 510.29 237.66 514.00 234.01 513.52 229.16 C 513.48 224.55 509.11 221.76 508.22 217.42 C 504.53 210.73 501.45 203.72 497.82 196.99 C 496.28 193.63 499.10 190.42 501.65 188.57 M 502.50 190.36 C 500.02 194.69 502.03 199.62 504.35 203.52 C 508.72 211.79 512.32 220.48 517.36 228.38 C 517.81 229.91 517.28 231.49 516.50 232.81 C 514.25 236.85 512.60 241.20 510.16 245.15 C 511.69 246.74 513.27 248.30 514.88 249.82 C 520.70 247.39 522.99 240.84 525.52 235.57 C 527.78 233.05 527.78 229.42 529.85 226.79 C 531.34 224.75 531.75 222.18 533.05 220.04 C 535.28 217.00 535.82 213.12 538.17 210.15 C 540.01 204.76 543.86 200.36 545.73 194.99 C 545.59 192.35 543.28 190.57 541.11 189.49 C 540.48 189.77 539.24 190.33 538.62 190.61 C 536.91 193.98 533.91 196.76 533.39 200.64 C 532.84 203.74 529.90 205.74 529.46 208.91 C 528.11 212.53 525.66 217.88 520.92 216.50 C 520.00 213.54 518.39 210.90 517.04 208.14 C 515.21 202.65 512.28 197.61 509.57 192.54 C 508.26 189.63 505.21 189.18 502.50 190.36 Z" />
</g>
<g id="#a2e5f5ff">
<path fill="#a2e5f5" stroke="#a2e5f5" stroke-width="0.09375" opacity="1.00" d=" M 675.33 192.38 C 678.74 190.65 681.89 187.72 686.00 188.29 C 691.38 188.71 697.65 186.90 702.12 190.80 C 705.77 192.76 708.17 196.23 710.19 199.73 C 712.10 204.60 711.70 209.96 711.29 215.06 C 702.18 217.77 692.51 215.76 683.16 216.51 C 683.50 218.57 683.14 221.51 685.57 222.39 C 691.93 225.00 698.88 223.06 705.05 220.84 C 708.03 219.49 710.57 222.36 711.37 224.95 C 711.88 227.52 710.62 229.98 708.81 231.72 C 705.11 233.63 701.28 235.74 696.98 235.66 C 692.24 235.60 687.44 236.05 682.75 235.33 C 680.01 233.62 677.13 232.20 674.26 230.75 C 670.46 227.11 666.75 222.57 666.65 217.03 C 666.42 210.86 665.69 203.89 669.61 198.62 C 671.24 196.33 672.69 193.66 675.33 192.38 M 683.19 191.27 C 680.40 193.66 676.11 193.60 674.08 197.00 C 671.24 201.54 667.76 206.35 668.54 212.02 C 667.75 219.17 672.42 225.26 677.05 230.16 C 678.47 230.38 679.97 230.42 681.36 230.94 C 683.21 231.97 684.63 233.96 686.91 234.09 C 690.23 234.49 693.60 234.32 696.94 234.20 C 699.77 230.71 704.47 230.79 708.43 229.60 C 708.85 228.26 709.29 226.93 709.74 225.61 C 707.01 222.15 702.66 224.83 699.04 224.52 C 696.50 224.06 694.85 225.98 693.44 227.74 C 689.91 227.18 687.35 224.03 683.59 224.18 C 681.55 221.77 678.93 219.24 679.49 215.78 C 688.48 213.18 697.95 215.41 707.13 214.35 C 709.68 213.39 709.44 210.22 709.51 208.01 C 709.98 202.99 706.25 199.18 703.81 195.23 C 700.66 193.25 697.35 191.42 693.88 190.05 C 690.38 189.64 686.06 188.64 683.19 191.27 Z" />
</g>
<g id="#a1e5f5ff">
<path fill="#a1e5f5" stroke="#a1e5f5" stroke-width="0.09375" opacity="1.00" d=" M 909.28 192.30 C 912.12 190.78 914.78 188.58 918.12 188.36 C 923.80 187.19 929.53 188.58 935.26 188.59 C 938.27 191.50 942.93 192.10 945.41 195.62 C 948.05 199.25 950.80 203.26 950.57 207.96 C 950.48 213.36 951.53 219.44 948.15 224.11 C 945.95 227.19 943.91 230.85 940.12 232.16 C 937.59 233.10 935.72 235.64 932.86 235.58 C 927.44 235.70 921.99 235.93 916.59 235.42 C 911.35 233.18 905.86 230.25 903.04 225.02 C 901.85 222.43 900.61 219.84 899.66 217.16 C 899.33 213.42 899.32 209.63 899.73 205.90 C 901.71 200.71 904.24 195.17 909.28 192.30 M 920.18 190.07 C 917.78 191.36 915.45 192.79 912.83 193.58 C 909.36 194.51 907.40 197.75 905.40 200.45 C 902.84 203.77 903.53 208.16 903.38 212.06 C 903.46 215.90 903.04 220.15 905.37 223.47 C 907.03 225.81 908.75 228.30 911.22 229.86 C 914.35 230.80 917.43 231.89 920.10 233.87 C 925.39 235.10 931.42 234.56 935.81 231.05 C 942.97 230.13 945.46 222.57 948.28 217.00 C 948.78 213.69 948.77 210.28 948.28 206.97 C 946.92 203.98 945.53 200.99 944.00 198.09 C 941.13 193.71 935.60 193.16 931.50 190.44 C 927.89 189.37 923.82 189.22 920.18 190.07 Z" />
</g>
<g id="#9de4f4ff">
<path fill="#9de4f4" stroke="#9de4f4" stroke-width="0.09375" opacity="1.00" d=" M 1049.74 188.55 C 1055.05 188.64 1060.41 187.13 1065.67 188.39 C 1075.23 191.19 1082.41 201.07 1081.42 211.08 C 1081.30 213.86 1078.76 216.43 1075.96 216.46 C 1067.74 216.68 1059.52 216.43 1051.30 216.60 C 1051.72 220.28 1055.30 223.30 1058.98 223.42 C 1063.14 223.72 1067.40 222.98 1071.13 221.06 C 1075.16 219.07 1080.13 221.67 1081.60 225.74 C 1081.10 227.26 1080.63 228.78 1080.22 230.32 C 1076.87 231.95 1073.40 233.32 1070.21 235.23 C 1064.87 236.15 1059.36 235.60 1053.96 235.65 C 1051.30 235.87 1049.11 234.31 1046.94 233.06 C 1036.93 228.73 1032.73 216.27 1034.96 206.16 C 1036.23 203.32 1037.40 200.43 1038.76 197.63 C 1041.35 193.46 1045.98 191.44 1049.74 188.55 M 1050.35 192.01 C 1043.97 194.65 1038.44 200.75 1038.47 207.94 C 1038.50 212.45 1037.90 217.16 1039.37 221.50 C 1040.94 224.48 1043.07 227.21 1045.56 229.48 C 1048.28 230.83 1051.43 231.25 1053.92 233.12 C 1056.83 235.24 1060.68 234.24 1064.04 234.20 C 1067.76 234.10 1070.21 230.45 1074.00 230.46 C 1076.61 230.68 1077.99 227.95 1077.68 225.66 C 1076.81 224.50 1075.28 224.28 1074.08 223.66 C 1072.38 223.98 1070.69 224.25 1068.99 224.48 C 1065.57 224.58 1063.06 227.43 1059.66 227.59 C 1057.50 223.89 1052.51 225.17 1049.95 222.12 C 1049.14 219.97 1049.51 217.60 1049.42 215.35 C 1058.10 213.38 1067.23 215.55 1076.01 214.24 C 1076.96 213.44 1077.49 212.42 1077.61 211.20 C 1078.10 204.81 1076.48 197.89 1071.22 193.78 C 1068.03 193.47 1065.78 191.15 1063.10 189.74 C 1058.74 189.21 1054.07 189.44 1050.35 192.01 Z" />
</g>
<g id="#99e2f4ff">
<path fill="#99e2f4" stroke="#99e2f4" stroke-width="0.09375" opacity="1.00" d=" M 1103.68 188.62 C 1111.03 187.79 1119.44 186.35 1125.73 191.32 C 1129.90 193.53 1132.04 197.82 1134.23 201.77 C 1136.15 204.85 1135.46 208.71 1135.29 212.15 C 1135.10 214.63 1132.80 215.97 1130.66 216.57 L 1130.07 215.80 C 1135.11 211.56 1133.32 204.26 1130.74 199.12 C 1128.28 193.99 1122.82 191.42 1117.66 189.81 C 1111.97 188.62 1106.42 190.39 1101.51 193.16 C 1094.88 194.73 1092.03 202.01 1091.47 208.13 C 1090.80 215.68 1091.63 224.87 1098.46 229.55 C 1103.51 232.42 1109.01 235.38 1115.02 234.94 C 1120.60 235.25 1125.53 232.37 1130.47 230.24 C 1132.74 229.46 1132.54 226.63 1133.33 224.78 C 1127.84 221.52 1121.66 224.40 1115.94 225.25 C 1113.36 225.90 1111.01 224.36 1108.86 223.18 C 1112.85 223.60 1116.98 224.00 1120.93 222.96 C 1123.61 222.32 1126.24 221.17 1129.06 221.25 C 1131.36 221.18 1133.03 222.97 1134.78 224.20 C 1134.59 226.15 1134.42 228.09 1134.26 230.04 C 1130.27 231.60 1126.60 233.90 1122.53 235.23 C 1115.04 236.11 1107.01 236.39 1100.24 232.53 C 1093.71 230.11 1090.88 223.13 1088.70 217.08 C 1088.35 213.69 1088.35 210.24 1088.71 206.86 C 1089.90 203.98 1091.30 201.21 1092.44 198.31 C 1094.83 193.76 1099.74 191.57 1103.68 188.62 Z" />
</g>
<g id="#9be3f4ff">
<path fill="#9be3f4" stroke="#9be3f4" stroke-width="0.09375" opacity="1.00" d=" M 443.55 193.80 C 444.89 191.99 445.93 189.60 448.30 188.95 C 448.24 189.37 448.14 190.23 448.08 190.65 C 446.92 198.39 447.66 206.23 447.44 214.02 C 447.52 218.88 447.00 224.16 449.41 228.59 C 451.38 230.31 453.70 231.60 455.88 233.04 C 458.79 235.11 462.75 234.68 466.01 233.81 C 469.77 232.13 473.26 229.74 477.42 229.10 C 478.47 230.83 479.20 232.93 480.91 234.16 C 482.47 234.58 484.06 233.90 485.61 233.65 C 483.45 234.82 481.01 235.28 478.62 235.74 C 477.81 234.53 477.00 233.32 476.21 232.11 C 472.94 232.80 470.50 235.70 467.06 235.66 C 462.91 236.02 458.57 236.81 454.57 235.26 C 452.31 233.90 450.26 232.22 447.92 231.00 C 446.14 227.15 443.19 223.51 443.53 219.04 C 443.55 210.63 443.54 202.21 443.55 193.80 Z" />
</g>
<g id="#b4eaf7ff">
<path fill="#b4eaf7" stroke="#b4eaf7" stroke-width="0.09375" opacity="1.00" d=" M 753.39 193.57 C 759.19 191.68 764.75 188.36 771.05 188.61 C 775.15 188.70 779.50 188.32 783.33 190.10 C 786.97 192.02 790.65 194.74 791.82 198.90 C 794.65 207.64 793.38 216.96 793.67 225.98 C 794.03 228.96 792.44 231.48 790.73 233.73 C 790.07 225.15 791.85 216.58 790.81 208.02 C 790.50 204.90 790.78 201.72 790.18 198.63 C 788.28 195.20 784.38 193.75 781.17 191.84 C 777.03 189.18 771.79 189.40 767.13 190.15 C 763.86 192.36 760.21 193.61 756.35 194.29 C 753.78 194.71 754.58 197.79 754.23 199.62 C 757.82 199.57 761.46 199.69 765.02 199.03 C 767.85 198.51 770.43 197.13 773.25 196.55 C 776.02 197.13 778.10 199.34 780.46 200.80 C 780.26 203.47 781.98 207.49 779.26 209.15 C 773.99 210.11 768.28 208.30 763.38 211.12 C 760.15 212.98 754.60 212.53 753.70 216.99 C 753.09 221.15 752.52 226.65 756.45 229.41 C 759.53 231.71 762.90 234.34 766.97 234.19 C 771.18 234.52 773.44 229.95 777.29 229.19 C 780.21 228.68 782.26 231.11 784.40 232.65 C 786.01 233.98 788.19 234.12 790.13 234.73 C 788.45 234.88 786.76 235.38 785.09 235.10 C 782.64 233.80 780.63 231.76 778.03 230.74 C 776.49 231.63 775.12 232.76 773.67 233.76 C 771.20 235.67 767.86 235.35 764.93 235.33 C 760.77 235.29 757.50 232.41 754.12 230.37 C 751.03 226.55 749.15 221.07 751.57 216.43 C 752.90 212.30 757.17 210.60 760.91 209.29 C 765.86 207.48 771.21 208.05 776.37 207.57 C 776.98 207.51 778.19 207.41 778.80 207.35 C 780.67 204.46 778.97 200.51 775.54 199.92 C 768.58 198.53 761.77 202.46 754.76 201.62 C 751.36 200.35 752.83 196.21 753.39 193.57 Z" />
</g>
<g id="#c4eff9ff">
<path fill="#c4eff9" stroke="#c4eff9" stroke-width="0.09375" opacity="1.00" d=" M 1117.66 189.81 C 1122.82 191.42 1128.28 193.99 1130.74 199.12 C 1133.32 204.26 1135.11 211.56 1130.07 215.80 C 1121.40 216.00 1112.55 214.74 1104.03 216.70 C 1105.08 219.20 1106.29 221.89 1108.86 223.18 C 1111.01 224.36 1113.36 225.90 1115.94 225.25 C 1121.66 224.40 1127.84 221.52 1133.33 224.78 C 1132.54 226.63 1132.74 229.46 1130.47 230.24 C 1125.53 232.37 1120.60 235.25 1115.02 234.94 C 1109.01 235.38 1103.51 232.42 1098.46 229.55 C 1091.63 224.87 1090.80 215.68 1091.47 208.13 C 1092.03 202.01 1094.88 194.73 1101.51 193.16 C 1098.19 196.92 1093.19 200.43 1093.39 206.00 C 1093.37 211.09 1092.89 216.27 1093.85 221.29 C 1095.74 225.02 1098.52 228.76 1102.63 230.16 C 1106.65 231.73 1110.45 234.49 1115.00 233.92 C 1120.63 234.32 1124.93 229.91 1130.41 229.37 C 1130.50 227.89 1130.62 226.41 1130.75 224.93 C 1126.44 223.77 1122.09 224.78 1118.30 226.96 C 1114.81 229.04 1111.33 226.36 1108.24 224.91 C 1106.37 223.82 1103.75 223.16 1103.27 220.74 C 1102.42 218.65 1102.57 215.00 1105.32 214.54 C 1113.69 213.66 1122.19 215.19 1130.52 213.65 C 1131.37 208.51 1131.04 203.00 1128.73 198.28 C 1126.45 193.75 1120.49 193.82 1117.66 189.81 Z" />
</g>
<g id="#ff5e5bff">
<path fill="#ff5e5b" stroke="#ff5e5b" stroke-width="0.09375" opacity="1.00" d=" M 253.33 199.35 C 256.90 197.93 260.30 196.12 263.85 194.66 C 263.98 198.06 264.05 201.49 263.59 204.87 C 262.57 206.74 261.68 208.68 260.88 210.65 C 251.81 220.08 242.68 229.52 233.08 238.43 C 231.19 238.43 229.30 238.42 227.41 238.44 C 227.39 237.66 227.37 236.88 227.35 236.11 L 226.79 235.59 C 220.85 229.95 215.07 224.16 209.25 218.40 C 209.58 216.70 209.93 215.00 210.26 213.30 C 224.54 208.41 239.03 204.18 253.33 199.35 Z" />
</g>
<g id="#ccf1faff">
<path fill="#ccf1fa" stroke="#ccf1fa" stroke-width="0.09375" opacity="1.00" d=" M 597.72 196.49 C 601.59 195.65 604.30 198.86 606.06 201.84 C 609.48 207.84 612.34 214.18 616.39 219.79 C 617.82 221.81 620.64 223.46 623.04 222.04 C 625.00 220.70 626.10 218.49 627.24 216.47 C 630.74 209.55 634.62 202.83 638.07 195.89 C 640.25 197.22 641.88 199.31 641.94 201.96 C 642.78 211.23 641.92 220.58 642.39 229.88 L 641.21 229.83 C 640.77 220.01 642.00 210.01 639.87 200.33 C 639.36 200.38 638.34 200.50 637.83 200.56 C 634.39 207.19 630.70 213.67 627.34 220.33 C 625.48 223.54 620.94 226.05 617.56 223.51 C 614.18 222.16 613.53 218.19 611.30 215.67 C 609.49 211.02 606.40 207.06 604.48 202.47 C 603.15 202.47 601.83 202.46 600.53 202.47 C 600.22 210.98 600.49 219.50 600.37 228.02 C 600.51 229.76 599.01 230.97 598.17 232.30 L 597.61 230.94 C 597.19 219.47 597.16 207.95 597.72 196.49 Z" />
</g>
<g id="#c9f0f9ff">
<path fill="#c9f0f9" stroke="#c9f0f9" stroke-width="0.09375" opacity="1.00" d=" M 688.32 196.52 C 692.50 195.60 696.03 198.73 699.46 200.59 C 699.77 203.25 700.36 206.00 699.58 208.64 C 696.76 210.42 693.15 209.42 690.00 209.70 C 686.57 209.49 682.75 210.23 679.69 208.32 C 678.79 207.71 677.96 206.56 678.57 205.47 C 680.60 201.45 684.17 198.24 688.32 196.52 M 684.02 201.07 C 682.62 202.56 681.96 204.57 681.01 206.35 C 682.54 207.24 684.07 208.43 685.98 208.32 C 690.20 208.36 694.56 208.89 698.67 207.59 C 698.51 205.71 698.69 203.75 698.06 201.95 C 695.55 199.87 692.17 199.56 689.12 198.81 C 687.39 199.51 685.61 200.10 684.02 201.07 Z" />
</g>
<g id="#aee9f7ff">
<path fill="#aee9f7" stroke="#aee9f7" stroke-width="0.09375" opacity="1.00" d=" M 923.70 196.82 C 925.51 195.76 927.34 197.55 929.05 198.09 C 931.02 199.27 934.11 199.20 934.99 201.71 C 936.83 205.71 939.56 209.92 938.23 214.52 C 937.16 217.58 935.88 220.60 934.32 223.44 C 932.12 224.63 929.59 225.08 927.48 226.45 C 926.37 227.03 924.90 228.15 923.70 227.19 C 920.40 224.39 915.17 223.44 913.77 218.83 C 913.48 214.08 913.34 209.26 913.88 204.54 C 915.56 200.36 920.26 199.13 923.70 196.82 M 919.89 201.21 C 917.90 203.08 915.08 204.85 915.20 207.95 C 914.85 212.93 914.04 219.65 919.61 222.12 C 919.69 222.39 919.85 222.93 919.93 223.21 C 924.17 223.48 929.64 224.43 932.68 220.66 C 935.56 215.52 934.69 209.20 933.32 203.72 C 929.95 199.97 924.40 199.76 919.89 201.21 Z" />
</g>
<g id="#a4e5f5ff">
<path fill="#a4e5f5" stroke="#a4e5f5" stroke-width="0.09375" opacity="1.00" d=" M 1109.50 198.49 C 1111.22 197.81 1112.84 196.01 1114.83 196.67 C 1116.93 198.09 1119.13 199.36 1121.30 200.69 C 1122.70 202.32 1123.55 204.33 1124.62 206.18 C 1123.25 208.02 1121.21 209.29 1118.87 209.30 C 1114.22 209.38 1109.52 209.69 1104.92 209.10 C 1102.78 207.74 1103.27 204.90 1103.66 202.79 C 1104.34 200.12 1107.49 199.79 1109.50 198.49 M 1105.47 204.81 C 1104.30 207.20 1107.37 207.64 1108.93 207.46 C 1112.55 207.43 1116.26 207.78 1119.82 206.80 C 1119.49 204.85 1120.11 202.01 1117.76 201.15 C 1113.47 199.33 1107.87 200.62 1105.47 204.81 Z" />
</g>
<g id="#64d3eeff">
<path fill="#64d3ee" stroke="#64d3ee" stroke-width="0.09375" opacity="1.00" d=" M 684.02 201.07 C 685.61 200.10 687.39 199.51 689.12 198.81 C 692.17 199.56 695.55 199.87 698.06 201.95 C 698.69 203.75 698.51 205.71 698.67 207.59 C 694.56 208.89 690.20 208.36 685.98 208.32 C 684.07 208.43 682.54 207.24 681.01 206.35 C 681.96 204.57 682.62 202.56 684.02 201.07 M 683.90 203.81 C 684.18 204.37 684.76 205.49 685.04 206.05 C 688.74 207.31 692.98 206.27 696.90 206.61 C 696.81 204.75 696.08 203.18 694.30 202.50 C 690.97 200.29 686.84 201.62 683.90 203.81 Z" />
</g>
<g id="#8bdef2ff">
<path fill="#8bdef2" stroke="#8bdef2" stroke-width="0.09375" opacity="1.00" d=" M 1051.17 201.26 C 1053.88 199.46 1057.13 198.68 1059.98 197.09 C 1064.05 199.26 1068.25 201.66 1069.98 206.25 C 1068.55 207.57 1066.94 208.78 1064.94 208.90 C 1059.84 209.48 1054.51 209.86 1049.56 208.27 C 1049.51 205.86 1049.01 202.98 1051.17 201.26 M 1051.08 206.55 C 1055.88 207.64 1060.94 207.76 1065.73 206.51 C 1065.37 204.92 1065.80 202.81 1064.24 201.77 C 1059.71 198.82 1052.38 201.12 1051.08 206.55 Z" />
</g>
<g id="#1ec0e6ff">
<path fill="#1ec0e6" stroke="#1ec0e6" stroke-width="0.09375" opacity="1.00" d=" M 1051.08 206.55 C 1052.38 201.12 1059.71 198.82 1064.24 201.77 C 1065.80 202.81 1065.37 204.92 1065.73 206.51 C 1060.94 207.76 1055.88 207.64 1051.08 206.55 Z" />
</g>
<g id="#1cc0e6ff">
<path fill="#1cc0e6" stroke="#1cc0e6" stroke-width="0.09375" opacity="1.00" d=" M 1105.47 204.81 C 1107.87 200.62 1113.47 199.33 1117.76 201.15 C 1120.11 202.01 1119.49 204.85 1119.82 206.80 C 1116.26 207.78 1112.55 207.43 1108.93 207.46 C 1107.37 207.64 1104.30 207.20 1105.47 204.81 Z" />
</g>
<g id="#11bce4ff">
<path fill="#11bce4" stroke="#11bce4" stroke-width="0.09375" opacity="1.00" d=" M 683.90 203.81 C 686.84 201.62 690.97 200.29 694.30 202.50 C 696.08 203.18 696.81 204.75 696.90 206.61 C 692.98 206.27 688.74 207.31 685.04 206.05 C 684.76 205.49 684.18 204.37 683.90 203.81 Z" />
</g>
<g id="#5dd2edff">
<path fill="#5dd2ed" stroke="#5dd2ed" stroke-width="0.09375" opacity="1.00" d=" M 915.20 207.95 C 915.08 204.85 917.90 203.08 919.89 201.21 C 919.08 204.34 917.20 207.05 916.28 210.13 C 915.32 214.52 918.76 218.03 919.61 222.12 C 914.04 219.65 914.85 212.93 915.20 207.95 Z" />
</g>
<g id="#b9ecf7ff">
<path fill="#b9ecf7" stroke="#b9ecf7" stroke-width="0.09375" opacity="1.00" d=" M 392.33 203.73 C 396.85 203.19 401.44 203.45 405.99 203.46 C 408.10 203.20 409.57 204.86 411.27 205.79 C 413.18 207.07 416.20 206.09 417.63 208.20 C 419.51 210.91 422.11 214.04 421.18 217.56 C 420.17 219.87 418.81 222.12 416.99 223.89 C 413.55 225.00 410.38 226.71 407.08 228.14 C 402.18 228.47 397.11 228.78 392.32 227.54 C 389.35 226.94 388.96 223.47 388.73 220.99 C 388.55 216.04 388.27 210.95 389.57 206.11 C 389.76 204.75 391.10 203.99 392.33 203.73 M 391.54 208.66 C 391.35 213.27 391.40 217.88 391.42 222.49 C 392.50 223.53 393.60 224.58 394.69 225.62 C 398.77 225.37 402.92 225.99 406.96 225.24 C 409.78 224.20 412.75 223.63 415.57 222.60 C 418.74 218.68 418.38 212.54 415.30 208.66 C 411.73 208.31 408.46 206.82 405.07 205.80 C 400.37 205.31 395.00 204.77 391.54 208.66 Z" />
</g>
<g id="#31c5e8ff">
<path fill="#31c5e8" stroke="#31c5e8" stroke-width="0.09375" opacity="1.00" d=" M 712.27 205.50 C 712.91 205.42 714.21 205.26 714.86 205.18 C 715.05 207.64 715.71 210.28 714.59 212.62 C 713.51 214.76 711.72 216.42 710.13 218.17 C 711.20 221.63 714.67 225.05 712.88 228.82 C 712.15 230.51 711.07 232.80 708.81 231.72 C 710.62 229.98 711.88 227.52 711.37 224.95 C 710.57 222.36 708.03 219.49 705.05 220.84 C 698.88 223.06 691.93 225.00 685.57 222.39 C 683.14 221.51 683.50 218.57 683.16 216.51 C 692.51 215.76 702.18 217.77 711.29 215.06 C 713.04 212.23 711.98 208.64 712.27 205.50 M 686.16 218.28 C 686.19 218.93 686.24 220.22 686.27 220.87 C 690.94 222.51 696.04 222.06 700.74 220.76 C 700.73 220.15 700.71 218.93 700.70 218.32 C 695.85 218.11 691.00 218.08 686.16 218.28 Z" />
</g>
<g id="#5cd1edff">
<path fill="#5cd1ed" stroke="#5cd1ed" stroke-width="0.09375" opacity="1.00" d=" M 391.54 208.66 C 395.00 204.77 400.37 205.31 405.07 205.80 C 408.46 206.82 411.73 208.31 415.30 208.66 C 418.38 212.54 418.74 218.68 415.57 222.60 C 412.75 223.63 409.78 224.20 406.96 225.24 C 402.92 225.99 398.77 225.37 394.69 225.62 C 393.60 224.58 392.50 223.53 391.42 222.49 C 391.40 217.88 391.35 213.27 391.54 208.66 M 394.35 209.27 C 394.29 213.71 394.23 218.15 394.40 222.58 C 401.09 222.58 407.92 223.27 414.47 221.54 C 415.66 218.02 416.82 213.03 413.67 210.26 C 407.50 208.33 400.68 207.91 394.35 209.27 Z" />
</g>
<g id="#5dd1edff">
<path fill="#5dd1ed" stroke="#5dd1ed" stroke-width="0.09375" opacity="1.00" d=" M 748.73 216.60 C 752.01 210.87 758.11 206.12 765.01 206.59 C 768.73 206.98 773.05 205.46 776.37 207.57 C 771.21 208.05 765.86 207.48 760.91 209.29 C 757.17 210.60 752.90 212.30 751.57 216.43 C 749.15 221.07 751.03 226.55 754.12 230.37 C 755.82 232.41 757.60 234.79 760.34 235.43 C 766.38 236.58 773.17 236.50 778.08 232.26 C 781.77 235.15 786.33 236.28 790.96 236.26 C 791.25 236.28 791.82 236.32 792.11 236.34 C 787.32 236.61 782.19 237.10 777.99 234.31 C 776.41 235.08 774.92 236.22 773.11 236.36 C 768.06 236.70 762.99 236.59 757.95 236.16 C 754.80 232.78 750.75 230.09 748.61 225.87 C 748.20 222.82 748.01 219.61 748.73 216.60 Z" />
</g>
<g id="#ffc9c7ff">
<path fill="#ffc9c7" stroke="#ffc9c7" stroke-width="0.09375" opacity="1.00" d=" M 233.08 238.43 C 242.68 229.52 251.81 220.08 260.88 210.65 L 262.33 210.21 L 262.67 211.78 C 257.43 219.34 250.29 225.25 244.04 231.93 C 241.20 235.10 237.49 237.30 234.53 240.35 C 232.26 240.00 227.63 241.83 227.41 238.44 C 229.30 238.42 231.19 238.43 233.08 238.43 Z" />
</g>
<g id="#a4e6f4ff">
<path fill="#a4e6f4" stroke="#a4e6f4" stroke-width="0.09375" opacity="1.00" d=" M 778.49 214.41 C 781.58 216.00 780.90 220.26 779.83 222.87 C 776.97 224.63 773.38 225.00 770.79 227.34 C 768.17 226.92 765.43 224.64 764.22 222.26 C 769.10 223.83 775.69 224.46 778.63 219.23 C 778.61 218.50 778.57 217.02 778.55 216.28 C 778.53 215.81 778.51 214.88 778.49 214.41 Z" />
</g>
<g id="#3ec9e9ff">
<path fill="#3ec9e9" stroke="#3ec9e9" stroke-width="0.09375" opacity="1.00" d=" M 1104.03 216.70 C 1112.55 214.74 1121.40 216.00 1130.07 215.80 L 1130.66 216.57 C 1132.36 219.51 1136.14 221.29 1136.34 224.98 C 1136.63 227.14 1136.00 229.26 1135.48 231.32 C 1131.07 232.58 1127.89 236.85 1123.07 236.69 C 1115.54 236.76 1107.81 237.57 1100.46 235.55 C 1100.41 234.80 1100.29 233.28 1100.24 232.53 C 1107.01 236.39 1115.04 236.11 1122.53 235.23 C 1126.60 233.90 1130.27 231.60 1134.26 230.04 C 1134.42 228.09 1134.59 226.15 1134.78 224.20 C 1133.03 222.97 1131.36 221.18 1129.06 221.25 C 1126.24 221.17 1123.61 222.32 1120.93 222.96 C 1116.98 224.00 1112.85 223.60 1108.86 223.18 C 1106.29 221.89 1105.08 219.20 1104.03 216.70 M 1108.11 218.21 C 1108.95 219.48 1109.22 221.58 1111.04 221.81 C 1115.78 222.35 1122.08 223.15 1124.95 218.34 C 1119.37 217.43 1113.68 217.35 1108.11 218.21 Z" />
</g>
<g id="#22c1e6ff">
<path fill="#22c1e6" stroke="#22c1e6" stroke-width="0.09375" opacity="1.00" d=" M 764.22 222.26 C 764.53 220.27 764.74 218.25 765.51 216.38 C 769.85 216.35 774.20 216.21 778.55 216.28 C 778.57 217.02 778.61 218.50 778.63 219.23 C 775.69 224.46 769.10 223.83 764.22 222.26 Z" />
</g>
<g id="#13bde5ff">
<path fill="#13bde5" stroke="#13bde5" stroke-width="0.09375" opacity="1.00" d=" M 686.16 218.28 C 691.00 218.08 695.85 218.11 700.70 218.32 C 700.71 218.93 700.73 220.15 700.74 220.76 C 696.04 222.06 690.94 222.51 686.27 220.87 C 686.24 220.22 686.19 218.93 686.16 218.28 Z" />
</g>
<g id="#12bde5ff">
<path fill="#12bde5" stroke="#12bde5" stroke-width="0.09375" opacity="1.00" d=" M 1108.11 218.21 C 1113.68 217.35 1119.37 217.43 1124.95 218.34 C 1122.08 223.15 1115.78 222.35 1111.04 221.81 C 1109.22 221.58 1108.95 219.48 1108.11 218.21 Z" />
</g>
<g id="#777676ff">
<path fill="#777676" stroke="#777676" stroke-width="0.09375" opacity="1.00" d=" M 288.70 231.44 C 289.06 231.43 289.79 231.42 290.15 231.41 C 292.46 231.73 294.79 231.94 297.12 232.18 C 294.38 232.78 290.76 232.27 289.08 235.03 C 288.08 241.67 286.72 249.09 281.68 253.95 L 279.99 254.38 C 281.49 250.58 284.78 247.53 285.17 243.31 C 285.56 239.87 285.82 236.39 286.81 233.05 C 287.28 232.65 288.23 231.84 288.70 231.44 Z" />
</g>
<g id="#223134ff">
<path fill="#223134" stroke="#223134" stroke-width="0.09375" opacity="1.00" d=" M 290.15 231.41 C 294.36 231.07 298.60 231.06 302.83 231.24 C 303.38 231.47 304.47 231.93 305.02 232.16 C 302.05 233.26 298.76 232.86 295.82 234.09 C 299.98 236.11 304.68 235.32 309.09 234.89 C 304.21 235.86 299.47 237.71 294.43 237.70 C 293.98 237.13 293.08 235.99 292.64 235.41 C 291.45 235.29 290.26 235.16 289.08 235.03 C 290.76 232.27 294.38 232.78 297.12 232.18 C 294.79 231.94 292.46 231.73 290.15 231.41 Z" />
</g>
<g id="#2b2a2aff">
<path fill="#2b2a2a" stroke="#2b2a2a" stroke-width="0.09375" opacity="1.00" d=" M 289.08 235.03 C 290.26 235.16 291.45 235.29 292.64 235.41 C 293.08 235.99 293.98 237.13 294.43 237.70 C 291.92 242.14 290.85 247.22 289.38 252.06 L 290.20 253.90 C 289.39 253.43 288.55 252.87 288.30 251.89 C 287.24 255.87 283.76 258.45 280.52 260.65 C 277.75 262.54 274.25 262.43 271.05 262.50 C 252.02 262.44 233.00 262.50 213.98 262.47 C 203.97 262.47 193.89 263.56 183.93 262.14 C 176.71 260.61 172.33 254.00 170.37 247.33 C 171.48 246.79 172.60 246.27 173.73 245.76 C 174.93 246.94 175.86 248.34 176.45 249.93 C 177.82 253.98 181.76 257.42 186.13 257.52 C 194.40 257.79 202.67 257.69 210.94 257.49 C 230.61 257.44 250.29 257.48 269.96 257.48 C 272.01 257.51 274.05 257.06 275.94 256.25 L 276.92 255.66 C 277.94 255.23 278.92 254.69 279.99 254.38 L 281.68 253.95 C 286.72 249.09 288.08 241.67 289.08 235.03 Z" />
</g>
</svg>
