<?xml version="1.0" encoding="UTF-8" ?>
<!DOCTYPE svg PUBLIC "-//W3C//DTD SVG 1.1//EN" "http://www.w3.org/Graphics/SVG/1.1/DTD/svg11.dtd">
<svg width="662pt" height="184pt" viewBox="0 0 662 184" version="1.1" xmlns="http://www.w3.org/2000/svg">
<g id="#000000ff">
</g>
<g id="#17bde4ff">
<path fill="#17bde4" stroke="#17bde4" stroke-width="0.09375" opacity="1.00" d=" M 21.01 29.24 C 95.34 28.35 169.67 27.40 244.00 26.52 C 302.35 27.35 360.69 28.29 419.03 29.17 C 491.31 28.59 563.59 27.34 635.87 26.50 C 633.86 45.35 631.92 64.21 629.88 83.05 C 629.45 86.09 630.58 89.02 631.32 91.92 C 633.61 100.62 635.82 109.34 638.16 118.03 C 639.33 122.23 639.32 126.63 639.70 130.95 C 640.48 141.46 641.30 151.98 642.06 162.50 C 548.71 161.23 455.36 159.94 362.01 158.67 C 346.32 158.34 330.63 158.75 314.94 158.81 C 221.06 159.62 127.19 160.43 33.32 161.26 C 32.26 136.86 31.34 112.45 30.23 88.05 C 28.19 81.75 23.58 76.54 21.10 70.40 C 20.86 56.69 21.07 42.96 21.01 29.24 Z" />
</g>
</svg>
